<?xml version="1.0" standalone="no"?>
<!DOCTYPE svg PUBLIC "-//W3C//DTD SVG 1.1//EN" "http://www.w3.org/Graphics/SVG/1.1/DTD/svg11.dtd" >
<svg xmlns="http://www.w3.org/2000/svg" xmlns:xlink="http://www.w3.org/1999/xlink" version="1.1">
<metadata></metadata>
<defs>
<font id="uncut_sansbold_oblique" horiz-adv-x="1144" >
<font-face units-per-em="2048" ascent="1638" descent="-410" />
<missing-glyph horiz-adv-x="409" />
<glyph horiz-adv-x="0" />
<glyph horiz-adv-x="682" />
<glyph unicode=" "  horiz-adv-x="409" />
<glyph unicode="&#x09;" horiz-adv-x="409" />
<glyph unicode="&#xa0;" horiz-adv-x="409" />
<glyph unicode="!" horiz-adv-x="899" d="M78 0l57 328h348l-57 -328h-348zM209 492l309 942h303l-350 -942h-262z" />
<glyph unicode="&#x22;" horiz-adv-x="1044" d="M221 961l60 532h317l-129 -532h-248zM662 961l59 532h317l-129 -532h-247z" />
<glyph unicode="#" horiz-adv-x="1648" d="M14 332l39 221h275l151 291h-252l39 221h330l209 401h295l-209 -401h268l209 401h295l-209 -401h174l-39 -221h-252l-151 -291h229l-39 -221h-305l-174 -332h-295l174 332h-268l-174 -332h-295l174 332h-199zM623 553h268l151 291h-268z" />
<glyph unicode="$" horiz-adv-x="1363" d="M78 573l305 21q-33 -156 -2.5 -248t119.5 -127l80 453l-11 2q-192 40 -286 147.5t-68 259.5q28 151 167 259.5t337 123.5l24 133h150l-25 -135q215 -20 309.5 -134.5t57.5 -315.5l-305 -21q32 187 -103 232l-61 -338q85 -19 149 -39.5t130 -57t105 -82.5t57 -116.5 t3 -157.5q-35 -203 -201 -329.5t-405 -135.5l-29 -164h-149l31 172q-227 32 -325 187.5t-54 410.5zM518 1081q-9 -59 13.5 -94.5t93.5 -62.5l53 307q-66 -12 -107.5 -51.5t-52.5 -98.5zM645 201q115 7 181 68t79 143q15 92 -24.5 141t-157.5 84z" />
<glyph unicode="%" horiz-adv-x="1617" d="M45 0l1311 1466h221l-1311 -1466h-221zM154 1118q25 141 146.5 244.5t262.5 103.5t226.5 -103.5t60.5 -244.5q-26 -141 -147.5 -244.5t-262.5 -103.5t-226.5 103.5t-59.5 244.5zM344 1118q-12 -68 25 -112.5t104 -44.5q68 0 121 45t65 112q11 68 -26.5 113t-104.5 45 q-68 0 -121 -45.5t-63 -112.5zM768 315q26 141 147.5 245t262.5 104t226.5 -104t59.5 -245q-25 -141 -146.5 -244.5t-262.5 -103.5t-226.5 103.5t-60.5 244.5zM958 315q-11 -68 27 -112.5t105 -44.5q68 0 121 45t63 112q12 68 -25 113t-104 45q-68 0 -121.5 -45.5 t-65.5 -112.5z" />
<glyph unicode="&#x26;" horiz-adv-x="1558" d="M43 385q13 70 44.5 129.5t79 106t98 80.5t116.5 67q-77 182 -49 342q31 176 168.5 266t333.5 90q94 0 168.5 -21.5t126.5 -64t73.5 -111.5t5.5 -159q-11 -63 -41 -118.5t-68 -95.5t-94 -78t-105 -63t-116 -55q66 -93 199 -233q78 127 111 311l290 -20q-47 -256 -227 -467 q38 -36 88 -82.5t81 -75.5t61.5 -58.5t46 -47.5t18.5 -27h-385q-2 11 -119 106q-212 -139 -442 -139q-241 0 -369.5 106t-93.5 312zM346 385q-13 -82 36 -134t165 -52q119 0 227 61q-164 150 -276 307q-133 -78 -152 -182zM635 1110q-17 -93 35 -215q105 49 164 98t71 117 q10 57 -25.5 91t-86.5 34t-99.5 -34t-58.5 -91z" />
<glyph unicode="'" horiz-adv-x="604" d="M221 961l60 532h317l-129 -532h-248z" />
<glyph unicode="(" horiz-adv-x="790" d="M83.5 408q2.5 104 22.5 213q23 130 68 253.5t94.5 211.5t109.5 169t103.5 127t85.5 84h316q-389 -361 -473 -845q-87 -487 174 -846h-316q-23 31 -45.5 68t-50 95t-46.5 128.5t-32 154t-10.5 187.5z" />
<glyph unicode=")" horiz-adv-x="790" d="M-125 -225q387 364 473 846q84 484 -174 845h315q23 -30 45.5 -67.5t49.5 -95t46 -128.5t32 -154t10.5 -187t-21.5 -213q-23 -130 -68.5 -253.5t-95 -212t-109 -169.5t-103 -127.5t-85.5 -83.5h-315z" />
<glyph unicode="*" horiz-adv-x="1024" d="M129 987l33 182l287 -43l-209 177l153 129l133 -240l9 295h184l-96 -295l219 240l106 -132l-268 -176l301 45l-33 -184l-286 45l208 -176l-155 -133l-131 237l-9 -290h-184l96 295l-219 -240l-106 129l272 178z" />
<glyph unicode="+" horiz-adv-x="1226" d="M82 489l41 232h375l67 377h232l-68 -377h375l-41 -232h-375l-65 -372h-232l66 372h-375z" />
<glyph unicode="," horiz-adv-x="632" d="M-80 -322l29 170q121 0 178.5 31.5t71.5 120.5h-185l58 328h348l-58 -328q-31 -177 -141 -249.5t-301 -72.5z" />
<glyph unicode="-" horiz-adv-x="1034" d="M123 489l41 232h706l-41 -232h-706z" />
<glyph unicode="." horiz-adv-x="634" d="M16 0l58 328h348l-57 -328h-349z" />
<glyph unicode="/" horiz-adv-x="1101" d="M-104 -225l972 1691h306l-973 -1691h-305z" />
<glyph unicode="0" horiz-adv-x="1423" d="M84 717q60 340 267 544.5t497 204.5q192 0 318 -93t171.5 -262t5.5 -394q-60 -341 -265.5 -545.5t-495.5 -204.5t-424 205t-74 545zM378.5 446q15.5 -115 78.5 -181t166 -66q154 0 265.5 141.5t151.5 376.5q24 156 9.5 271t-77.5 181t-165 66q-154 0 -267 -142t-153 -376 q-24 -156 -8.5 -271z" />
<glyph unicode="1" horiz-adv-x="1183" d="M-2 0l41 231h369l124 709q-84 -147 -262 -147h-131l39 231h131q126 0 199 92.5t113 317.5h303l-213 -1203h368l-41 -231h-1040z" />
<glyph unicode="2" horiz-adv-x="1290" d="M-43 0l37 201q33 23 123 76t181.5 107t201 129.5t195 147.5t149.5 158t78 164q21 120 -35 186t-166 66q-116 0 -198 -79.5t-113 -254.5l-291 21q43 244 220 394t423 150q160 0 275 -65.5t163 -175t25 -242.5q-16 -94 -73 -188.5t-129.5 -169.5t-173.5 -153t-184 -131 t-184 -110h643l-41 -231h-1126z" />
<glyph unicode="3" horiz-adv-x="1343" d="M33 430l313 39q-15 -72 -7 -124.5t27 -87.5t53 -56t71.5 -30t82.5 -9q75 0 141.5 23.5t118.5 78.5t66 133q11 59 -5.5 104.5t-53.5 72t-84 40t-101 13.5h-194l43 237h194q108 0 181 55t92 154q17 98 -37.5 150.5t-163.5 52.5q-106 0 -182.5 -68t-95.5 -176h-304 q14 82 62 163.5t124 152.5t190.5 115t246.5 44q126 0 224 -36t153.5 -97t78 -138.5t7.5 -162.5q-41 -229 -240 -323q105 -48 150 -137t22 -216q-34 -200 -225 -335.5t-449 -135.5q-264 0 -400 142.5t-99 361.5z" />
<glyph unicode="4" horiz-adv-x="1443" d="M-16 375l34 205q90 44 166.5 113.5t131.5 151.5t99 182t72.5 199t47.5 208h313q-26 -139 -76.5 -282t-143.5 -295t-208 -251h434l147 828h304l-148 -828h184l-38 -231h-187l-65 -375h-303l65 375h-829z" />
<glyph unicode="5" horiz-adv-x="1304" d="M29 408l309 20q-16 -97 43 -164t178 -67q123 0 209.5 73.5t108.5 196.5q23 122 -37.5 195t-184.5 73q-182 0 -280 -117h-291l213 816h946l-41 -232h-661l-72 -289q79 45 225 45q259 0 392 -137t94 -354q-37 -218 -220.5 -359t-441.5 -141q-260 0 -392 120.5t-97 320.5z " />
<glyph unicode="6" horiz-adv-x="1359" d="M62.5 558q4.5 70 17.5 144q27 155 81.5 282t127.5 215.5t163.5 149t189 89t204.5 28.5q103 0 187.5 -22.5t152 -70t107.5 -128.5t46 -190l-305 -21q-9 41 -22 72.5t-38 63t-67.5 48.5t-101.5 17q-126 0 -238.5 -95.5t-181.5 -299.5q71 74 163 113.5t193 39.5 q115 0 211 -34.5t162.5 -98t95 -161.5t7.5 -218q-28 -159 -127 -277.5t-237 -177.5t-294 -59q-102 0 -184 24t-136.5 64.5t-92.5 98t-56.5 121t-25 138.5t-2 145zM383 481q-24 -136 34 -209t183 -73q124 0 206.5 72.5t106.5 209.5q24 136 -32 208.5t-181 72.5t-209 -72.5 t-108 -208.5z" />
<glyph unicode="7" horiz-adv-x="1187" d="M106 1202l41 232h1127l-37 -205q-84 -43 -162.5 -104.5t-166.5 -165t-159.5 -233t-134 -317.5t-98.5 -409h-313q68 414 223.5 699t407.5 503h-728z" />
<glyph unicode="8" horiz-adv-x="1327" d="M10 418q20 106 107.5 195.5t210.5 134.5q-86 50 -126.5 134t-25.5 171q31 182 199.5 297.5t423.5 115.5q254 0 380 -115t95 -298q-18 -94 -86.5 -177.5t-169.5 -130.5q107 -47 161.5 -135t34.5 -192q-18 -105 -85 -192t-162.5 -142.5t-208 -86t-226.5 -30.5t-215.5 30.5 t-177 86t-111.5 142.5t-18 192zM317 418q-18 -103 55.5 -159t202.5 -56t221.5 56t110.5 159q19 103 -53.5 158t-202.5 55q-129 0 -222 -55t-112 -158zM479 1053q-16 -88 49 -139.5t164 -51.5q98 0 180.5 51.5t98.5 139.5q14 87 -49.5 134.5t-163.5 47.5q-64 0 -122.5 -19 t-102.5 -61.5t-54 -101.5z" />
<glyph unicode="9" horiz-adv-x="1361" d="M25 379l305 20q9 -41 22 -72.5t38 -62.5t67.5 -48t101.5 -17q126 0 238.5 95.5t181.5 299.5q-71 -74 -163 -114t-193 -40q-115 0 -211 34.5t-162.5 98t-95 161.5t-7.5 218q28 159 127 277.5t237 177.5t294 59q102 0 184 -24t136.5 -64.5t92.5 -98t56.5 -121t25 -138.5 t2 -145t-17.5 -144q-27 -155 -81.5 -282t-127.5 -215.5t-163.5 -149t-189 -89t-204.5 -28.5q-103 0 -187.5 23t-152 70.5t-107.5 128.5t-46 190zM451 952q-24 -136 32 -208t181 -72t209 72t108 208t-34 209.5t-183 73.5q-124 0 -206 -73t-107 -210z" />
<glyph unicode=":" horiz-adv-x="634" d="M16 0l58 328h348l-57 -328h-349zM139 737l58 328h348l-58 -328h-348z" />
<glyph unicode=";" horiz-adv-x="634" d="M-80 -322l29 170q121 0 178.5 31.5t71.5 120.5h-185l58 328h348l-58 -328q-31 -177 -141 -249.5t-301 -72.5zM139 737l58 328h348l-58 -328h-348z" />
<glyph unicode="&#x3c;" horiz-adv-x="1185" d="M41 485l39 220l1075 536l-47 -264l-764 -381l631 -383l-47 -264z" />
<glyph unicode="=" horiz-adv-x="1226" d="M41 252l41 231h981l-41 -231h-981zM125 729l41 232h981l-41 -232h-981z" />
<glyph unicode="&#x3e;" horiz-adv-x="1185" d="M-12 -51l47 264l766 383l-633 381l47 264l887 -536l-39 -220z" />
<glyph unicode="?" horiz-adv-x="1218" d="M123 944q18 108 71.5 203t132.5 166t186.5 112t227.5 41q242 0 362.5 -128.5t84.5 -331.5q-22 -124 -96 -216.5t-177.5 -142.5t-230.5 -65l-31 -172h-293l58 329q198 0 321.5 71.5t145.5 195.5q12 66 0 113t-42.5 71t-65.5 34.5t-77 10.5q-33 0 -65 -8.5t-67 -30.5 t-64 -56t-53.5 -89.5t-36.5 -126.5zM270 0l47 266h328l-47 -266h-328z" />
<glyph unicode="@" horiz-adv-x="1808" d="M76 571q29 162 119 310.5t216 255.5t285.5 171t321.5 64q109 0 208 -29t177 -81t140.5 -125.5t97 -162.5t47 -191t-8.5 -212q-18 -104 -58.5 -183.5t-95 -126t-115 -70t-124.5 -23.5q-108 0 -191.5 53.5t-95.5 138.5q-36 -91 -115 -146.5t-179 -55.5q-106 0 -167.5 67 t-43.5 170q10 53 37 94.5t61 67t87.5 45.5t98 30.5t111.5 22.5q83 13 119.5 33t35.5 64q-2 32 -29 52.5t-83 20.5q-63 0 -100 -30.5t-46 -71.5l-225 16q4 21 12 45t36 64.5t68.5 71t115.5 54t170 23.5q185 0 255.5 -83t38.5 -267l-18 -106q-21 -117 4.5 -163t91.5 -46 q61 0 107 65t65 174q23 129 -5.5 245.5t-97.5 200.5t-176.5 133.5t-236.5 49.5q-173 0 -333 -83.5t-269.5 -228.5t-140.5 -317q-22 -130 6.5 -246.5t98 -200.5t177.5 -133.5t238 -49.5q163 0 315 73l267 -20q-127 -114 -285 -169.5t-330 -55.5q-216 0 -381.5 107.5 t-240.5 292.5t-37 402zM727 422q-7 -39 14.5 -64.5t61.5 -25.5q71 0 133 64t88 184q-40 -40 -166 -66q-119 -24 -131 -92z" />
<glyph unicode="A" horiz-adv-x="1480" d="M-86 0l801 1434h305l293 -1434h-305l-74 360h-514l-201 -360h-305zM551 592h336l-90 440z" />
<glyph unicode="B" horiz-adv-x="1292" d="M16 0l254 1434h441q33 0 60 -1t66.5 -4t69.5 -9.5t69.5 -17t65.5 -26.5t58 -38.5t46 -51.5q14 -30 32 -68q15 -32 15 -70q-1 -8 -1 -16q-4 -48 -8 -106q-14 -85 -73 -158t-161 -118q122 -40 175 -126q39 -64 39 -143q0 -28 -5 -59q-14 -80 -49 -145.5t-78.5 -108.5 t-99.5 -75.5t-106.5 -49.5t-106 -27.5t-91.5 -13t-69 -2.5h-543zM350 231h209q114 0 197.5 49.5t99.5 141.5q3 32 4.5 57t-8 44.5t-18.5 33.5t-28 24t-36 16t-42.5 9.5t-48.5 4.5t-52 1h-209zM459 844h147q51 0 91.5 7t80 25.5t66.5 56.5t37 93q8 33 3.5 58.5t-12 44 t-24.5 31.5t-34.5 21t-43 13t-48.5 6.5t-52 1.5h-148z" />
<glyph unicode="C" horiz-adv-x="1546" d="M70 473q-2 31 -3 64q0 82 15 176q27 154 91.5 282t149.5 213.5t186.5 145t201 86t194.5 26.5q94 0 179.5 -21t160 -66.5t127.5 -112.5q52 -66 80 -164q22 -78 22 -170q0 -23 -1 -47l-308 -21v10q-1 176 -69 257q-70 83 -236 83q-171 0 -303.5 -137t-171.5 -364 q-13 -74 -13 -139q0 -132 56 -222q84 -134 256 -133q168 0 265.5 78t160.5 260l301 -20q-35 -119 -97 -215.5t-138.5 -161.5t-167 -109.5t-182.5 -64t-187 -19.5q-79 0 -154.5 18.5t-147.5 57t-127 98t-93.5 142.5t-46.5 190z" />
<glyph unicode="D" horiz-adv-x="1429" d="M16 0l254 1434h502q40 0 71.5 -1.5t81.5 -6t89 -16t88 -28.5t84.5 -45.5t72.5 -66t59 -91.5q24 -54 38 -120q13 -58 13 -132q0 -10 -1 -21q-2 -87 -20 -189q-25 -144 -74.5 -258.5t-105.5 -188t-132 -127.5t-139.5 -80.5t-143.5 -41.5t-127.5 -18t-107.5 -3h-502z M360 231h179q230 0 344 109t161 377q22 124 22 208q0 80 -19 135q-19 56 -65 86.5t-109.5 43t-161.5 12.5h-179z" />
<glyph unicode="E" horiz-adv-x="1204" d="M16 0l254 1434h959l-41 -232h-656l-61 -342h553l-41 -231h-553l-70 -398h656l-41 -231h-959z" />
<glyph unicode="F" horiz-adv-x="1204" d="M16 0l254 1434h959l-41 -232h-656l-61 -342h553l-41 -231h-553l-111 -629h-303z" />
<glyph unicode="G" horiz-adv-x="1617" d="M70 473q-3 31 -3 64q0 81 15 176q27 154 91.5 282t149.5 213.5t186.5 145t201 86t194.5 26.5q94 0 179.5 -21t160 -66.5t127.5 -112t80 -164.5q22 -78 22 -170q0 -23 -1 -47l-308 -21v10q0 176 -69 257q-70 83 -236 83q-171 0 -303.5 -137t-171.5 -364q-13 -74 -13 -139 q0 -132 56 -222q84 -133 256 -133q159 0 275 85.5t153 199.5h-377l41 231h703l-131 -735h-256l100 289q-94 -144 -241.5 -233t-311.5 -89q-79 0 -154.5 18.5t-147.5 57t-127 98t-93.5 142.5t-46.5 190z" />
<glyph unicode="H" horiz-adv-x="1425" d="M16 0l254 1434h303l-102 -574h533l102 574h303l-254 -1434h-303l111 629h-533l-111 -629h-303z" />
<glyph unicode="I" horiz-adv-x="589" d="M16 0l254 1434h303l-254 -1434h-303z" />
<glyph unicode="J" horiz-adv-x="1216" d="M20 420q3 88 23 190l307 21q-18 -102 -18 -179q0 -233 168 -233q93 0 148 58t77 180l172 977h303l-162 -916q-12 -68 -25.5 -121.5t-37 -112.5t-53 -103.5t-73.5 -86.5t-99 -68.5t-130 -42.5t-165 -16q-125 0 -213.5 37t-135.5 97.5t-68 146.5q-18 76 -18 154v18z" />
<glyph unicode="K" horiz-adv-x="1363" d="M16 0l254 1434h303l-98 -557l608 557h338l-612 -570l408 -864h-334l-301 653l-176 -164l-87 -489h-303z" />
<glyph unicode="L" horiz-adv-x="1132" d="M16 0l254 1434h303l-213 -1203h625l-41 -231h-928z" />
<glyph unicode="M" horiz-adv-x="1818" d="M16 0l254 1434h385l191 -1076l571 1076h385l-254 -1434h-303l156 881l-469 -881h-297l-158 887l-158 -887h-303z" />
<glyph unicode="N" horiz-adv-x="1523" d="M16 0l254 1434h342l414 -1010l178 1010h303l-254 -1434h-362l-399 975l-173 -975h-303z" />
<glyph unicode="O" horiz-adv-x="1583" d="M72 435q-8 50 -8 106q0 82 18 176q27 154 90.5 281.5t147 212.5t186 144t208 85t212.5 26t202.5 -27t177.5 -83.5t133.5 -145t71.5 -211.5q8 -49 8 -104q0 -82 -18 -178q-27 -154 -90 -281.5t-146.5 -213t-186 -144t-207.5 -85t-212 -26.5t-202.5 27t-178 84 t-134.5 145.5t-72 211.5zM395 717q-12 -68 -12 -129q1 -67 15 -127q28 -113 107 -177.5t200 -64.5q181 0 312.5 139t170.5 359q12 69 12 130q0 131 -57 227q-84 140 -262 140q-179 0 -313 -139.5t-173 -357.5z" />
<glyph unicode="P" horiz-adv-x="1251" d="M16 0l254 1434h523q50 0 104 -6t133 -31.5t134 -67.5q54 -43 86 -125q19 -50 20 -111q0 -39 -8 -81q-14 -80 -49.5 -145.5t-81 -108t-103.5 -75t-110.5 -49t-110.5 -27t-94.5 -13t-69.5 -2.5h-219l-105 -592h-303zM465 823h178q144 0 220.5 42.5t94.5 146.5q5 26 5 47 q-1 67 -47 100q-62 43 -205 43h-179z" />
<glyph unicode="Q" horiz-adv-x="1607" d="M72 435q-8 50 -8 106q0 82 18 176q27 154 90.5 281.5t147 212.5t186 144t208 85t212.5 26t202.5 -27t177.5 -83.5t133.5 -145t71.5 -211.5q8 -49 8 -104q0 -83 -18 -178q-59 -331 -268 -524l203 -328h-287l-117 188q-176 -86 -373 -86q-107 0 -202.5 27t-178 84 t-134 145.5t-72.5 211.5zM395 717q-12 -68 -12 -129q0 -68 15 -127q27 -113 106.5 -177.5t200.5 -64.5q106 0 194 49l-272 441h286l168 -271q80 122 107 279q12 69 12 130q0 132 -57 227q-84 140 -262 140q-179 0 -313 -139.5t-173 -357.5z" />
<glyph unicode="R" horiz-adv-x="1355" d="M16 0l254 1434h523q50 0 104 -6t133 -31.5t134 -67.5q54 -43 86 -125q19 -50 20 -111q0 -39 -8 -81q-26 -147 -118.5 -227t-242.5 -111q94 -7 145 -25.5t78 -57.5q27 -38 26 -100q0 -60 -9 -163l-35 -328h-307l41 354q7 61 7 107q-1 16 -1 29q-4 53 -40 77.5t-120 24.5 h-262l-105 -592h-303zM465 823h178q61 0 101.5 3.5t80 14.5t64 31.5t42.5 55t27 84.5q6 31 6 56t-6 44.5t-16 33.5t-27 24t-36.5 16t-47 9.5t-55.5 5t-65 1.5h-179z" />
<glyph unicode="S" horiz-adv-x="1363" d="M78 573l305 21q-18 -79 -18 -143q-1 -91 37 -151q64 -100 212 -101q128 0 202 62.5t89 150.5q5 28 5 52q0 26 -6 46q-11 40 -52.5 70t-106.5 50.5t-176 43.5q-192 40 -286 148q-74 84 -74 195q0 31 6 64q30 163 186.5 274t376.5 111q261 0 379 -116q88 -87 88 -232 q0 -49 -10 -106l-305 -21q6 37 6 68q0 75 -37 117q-53 59 -162 59q-91 0 -149 -41.5t-70 -112.5q-3 -17 -3 -33q0 -30 11 -52q16 -33 68.5 -58.5t155.5 -48.5q87 -19 152.5 -39t134.5 -57t109 -83q40 -47 60 -118q11 -39 11 -83q0 -36 -7 -77q-37 -210 -212 -337.5 t-425 -127.5q-287 0 -417 160q-93 115 -92 294q0 71 14 152z" />
<glyph unicode="T" horiz-adv-x="1265" d="M106 1202l41 232h1225l-41 -232h-461l-213 -1202h-303l213 1202h-461z" />
<glyph unicode="U" horiz-adv-x="1443" d="M105 328q-6 38 -6 81q0 60 12 128l159 897h303l-159 -897q-10 -70 -9 -118q1 -47 15 -81q16 -36 34.5 -59t49.5 -36.5t62 -18.5t69 -5q59 0 106.5 13t94 45.5t80 98t49.5 161.5l159 897h303l-159 -897q-20 -114 -67 -208.5t-112.5 -160.5t-147 -112t-170 -67.5 t-181.5 -21.5t-174 22t-147 66.5t-107.5 112.5t-56.5 160z" />
<glyph unicode="V" horiz-adv-x="1376" d="M147 1434h304l192 -1014l535 1014h305l-758 -1434h-305z" />
<glyph unicode="W" horiz-adv-x="1875" d="M168 1434h283l65 -940l397 940h304l65 -940l397 940h283l-606 -1434h-303l-68 981l-416 -981h-303z" />
<glyph unicode="X" horiz-adv-x="1386" d="M-106 0l636 717l-383 717h326l260 -488l434 488h326l-637 -717l383 -717h-326l-260 487l-434 -487h-325z" />
<glyph unicode="Y" horiz-adv-x="1277" d="M147 1434h306l211 -635l405 635h315l-913 -1434h-315l288 455z" />
<glyph unicode="Z" horiz-adv-x="1269" d="M-4 0l41 231l870 971h-698l41 232h1024l-41 -232l-871 -971h699l-41 -231h-1024z" />
<glyph unicode="[" horiz-adv-x="811" d="M-2 -225l299 1691h586l-41 -231h-303l-217 -1227h303l-41 -233h-586z" />
<glyph unicode="\" horiz-adv-x="1101" d="M195 1466h305l374 -1691h-305z" />
<glyph unicode="]" horiz-adv-x="811" d="M-104 -225l41 233h303l217 1227h-303l41 231h585l-299 -1691h-585z" />
<glyph unicode="^" horiz-adv-x="1325" d="M369 1188l217 287h418l118 -287h-254l-88 205l-157 -205h-254z" />
<glyph unicode="_" horiz-adv-x="706" d="M-158 -182l41 231h707l-41 -231h-707z" />
<glyph unicode="`" horiz-adv-x="1013" d="M420 1475h303l86 -287h-205z" />
<glyph unicode="a" d="M2 268q11 60 36.5 108t66 82.5t83.5 59.5t104.5 44t112.5 30.5t123 23.5q17 3 47 7.5t43 7t35 7.5t31.5 9.5t23 13t18.5 18.5t9 24.5t4 33.5q-3 88 -153 88q-85 0 -135 -41t-62 -94l-299 21q4 19 10 39t23 56t41 67t66.5 66.5t95 60t130.5 41t171 16.5q245 0 341 -110 q67 -77 66 -213q0 -58 -12 -128l-107 -606h-292l36 207q-60 -105 -153.5 -170.5t-218.5 -65.5q-142 -1 -225 81q-65 64 -65 160q0 27 5 56zM313 305q-2 -13 -3 -24q0 -34 23 -53q30 -25 87 -25q96 0 179 69.5t103 176.5l13 69q-28 -29 -80 -48.5t-148 -41.5 q-160 -35 -174 -123z" />
<glyph unicode="b" horiz-adv-x="1308" d="M16 0l254 1434h293l-96 -547q123 170 334 170q159 0 258 -70t130 -188q16 -62 16 -135q0 -66 -13 -140q-20 -117 -68 -217t-120.5 -176.5t-174 -120t-221.5 -43.5q-103 0 -172 48.5t-100 140.5l-27 -156h-293zM403 528q-9 -57 -9 -104q0 -95 37 -147q55 -78 157 -78 q49 0 93.5 17t86.5 53t74 101t47 154q10 55 10 100q0 201 -201 201q-102 0 -181 -62.5t-109 -203.5z" />
<glyph unicode="c" horiz-adv-x="1181" d="M38 306q-6 37 -7 78q0 57 12 122q24 136 87.5 244t151 173.5t187.5 99.5t205 34q80 0 144.5 -11.5t122.5 -40.5t96 -75q38 -48 57 -122q14 -54 14 -120q0 -24 -2 -51l-303 -21q-3 114 -42 161.5t-128 47.5q-109 0 -185.5 -86.5t-101.5 -230.5q-11 -59 -11 -107 q0 -202 187 -202q83 0 142.5 43.5t99.5 152.5l297 -20q-27 -96 -72.5 -169t-99.5 -117.5t-123 -72.5t-137 -38.5t-148 -10.5q-83 0 -156 20t-134.5 61.5t-100 105.5t-52.5 152z" />
<glyph unicode="d" horiz-adv-x="1308" d="M39 308q-6 40 -6 82q0 65 14 134q43 240 193 386.5t387 146.5q212 0 276 -172l96 549h293l-254 -1434h-293l27 154q-62 -91 -148.5 -139t-189.5 -48q-120 0 -206.5 44t-130 119.5t-58.5 177.5zM344 370q7 -62 37 -100.5t68.5 -54.5t87.5 -16q38 0 74.5 11t73 36.5 t66.5 64t54 98.5t37 136q7 47 7 85q1 28 -3 50q-8 54 -40 86t-71 45.5t-88 13.5q-242 0 -297 -301q-8 -60 -9 -107q1 -25 3 -47z" />
<glyph unicode="e" horiz-adv-x="1169" d="M36 300q-6 37 -6 78q0 59 13 128q20 113 66.5 206.5t108 156t136.5 106t151 63t152 19.5q95 0 174.5 -31.5t139.5 -97.5q60 -68 80 -172q10 -50 10 -108q0 -65 -12 -142l-11 -55h-702q-8 -42 -8 -78q0 -68 28 -110q42 -64 150 -64q94 0 146.5 40t70.5 85l289 -21 q-22 -99 -106.5 -177t-200.5 -118.5t-240 -40.5q-76 0 -145 18.5t-130 58.5t-99.5 103.5t-54.5 152.5zM369 631h428q3 18 3 35q0 59 -36 103q-46 56 -148 56t-168 -56.5t-79 -137.5z" />
<glyph unicode="f" horiz-adv-x="794" d="M55 793l39 231h176l13 74q33 189 135 272.5t272 83.5h213l-39 -231h-127q-89 0 -119 -26.5t-47 -121.5l-8 -51h264l-39 -231h-266l-141 -793h-293l141 793h-174z" />
<glyph unicode="g" horiz-adv-x="1306" d="M-33 -113l305 21q9 -119 172 -119q264 0 310 252l16 98q-123 -172 -336 -172q-97 0 -172 26t-122.5 73t-76 113.5t-31.5 146.5q-1 15 -1 29q0 68 12 145q21 117 69 217t120 176.5t173.5 120t221.5 43.5q102 0 171.5 -48t100.5 -139l27 154h293l-162 -922 q-97 -544 -654 -544q-100 0 -181 23t-130 58.5t-81 80t-41 87.5q-6 25 -6 48q0 16 3 32zM346 500q-9 -54 -9 -98q0 -203 200 -203q99 0 177 58t111 189l13 74q5 40 5 75q0 102 -42 157q-56 73 -154 73q-49 0 -93.5 -17t-86.5 -53t-74 -101t-47 -154z" />
<glyph unicode="h" horiz-adv-x="1206" d="M-4 0l256 1454h303l-106 -606q127 209 368 209q146 0 219 -96q50 -65 50 -175q0 -51 -11 -112l-119 -674h-303l113 641q7 35 7 63q0 121 -122 121q-96 0 -165 -81t-99 -246l-88 -498h-303z" />
<glyph unicode="i" horiz-adv-x="575" d="M8 0l180 1024h304l-181 -1024h-303zM207 1188l45 266h328l-45 -266h-328z" />
<glyph unicode="j" horiz-adv-x="614" d="M-301 -410l41 232h127q90 0 119.5 26t46.5 121l184 1055h293l-188 -1077q-34 -190 -137 -273.5t-273 -83.5h-213zM227 1188l45 266h328l-45 -266h-328z" />
<glyph unicode="k" d="M-4 0l254 1434h293l-131 -744l422 334h344l-473 -389l288 -635h-327l-199 438l-117 -96l-61 -342h-293z" />
<glyph unicode="l" horiz-adv-x="589" d="M16 0l256 1454h303l-256 -1454h-303z" />
<glyph unicode="m" horiz-adv-x="1863" d="M-4 0l180 1024h303l-30 -176q127 209 368 209q106 0 175 -51t87 -154q71 99 172.5 152t223.5 53q146 0 219 -96q50 -65 50 -175q0 -51 -11 -112l-119 -674h-303l112 641q7 35 7 63q0 121 -121 121q-96 0 -165.5 -81t-99.5 -246l-88 -498h-303l113 641q7 35 7 63 q0 121 -122 121q-96 0 -165 -81t-99 -246l-88 -498h-303z" />
<glyph unicode="n" horiz-adv-x="1206" d="M-4 0l180 1024h303l-30 -176q127 209 368 209q146 0 219 -96q50 -65 50 -175q0 -51 -11 -112l-119 -674h-303l113 641q7 35 7 63q0 121 -122 121q-96 0 -165 -81t-99 -246l-88 -498h-303z" />
<glyph unicode="o" horiz-adv-x="1230" d="M45 512q20 109 66.5 200t108.5 154t138.5 106.5t156.5 64t161 20.5t154 -20.5t134 -63t100 -107.5q40 -66 54 -154q6 -36 7 -76q0 -58 -13 -124q-19 -110 -65 -201t-108 -154t-138.5 -106.5t-156.5 -63.5t-161 -20q-103 0 -190.5 33t-152.5 97q-65 63 -92 171 q-14 57 -14 122q0 58 11 122zM348 512q-9 -55 -9 -100q-1 -80 29 -132q46 -80 155.5 -80.5t185.5 80.5t102 232q10 55 10 101q0 80 -30 131q-47 81 -156 81t-184.5 -80.5t-102.5 -232.5z" />
<glyph unicode="p" horiz-adv-x="1308" d="M-55 -410l252 1434h292l-26 -156q61 92 148 140.5t190 48.5q96 0 171.5 -28.5t122.5 -79t75 -120.5t30 -153v-21q0 -74 -12 -155q-20 -116 -67.5 -213t-119 -168.5t-172.5 -111.5t-221 -40q-213 0 -274 172l-96 -549h-293zM392 344q8 -53 39 -85.5t69.5 -46t87.5 -13.5 q244 0 297 301q8 60 8 107q0 26 -2 47q-7 63 -37 101t-68.5 54t-87.5 16t-93.5 -18t-86.5 -56.5t-74.5 -108t-48.5 -163.5q-7 -47 -7 -85q0 -27 4 -50z" />
<glyph unicode="q" horiz-adv-x="1306" d="M32 326q-1 15 -1 29q0 68 12 145q21 117 69 217t120 176.5t173.5 120t221.5 43.5q102 0 171.5 -48t100.5 -139l27 154h293l-252 -1434h-293l96 547q-123 -170 -336 -170q-97 0 -172 26t-122.5 73t-76 113.5t-31.5 146.5zM346 500q-9 -54 -9 -98q0 -203 200 -203 q98 0 175.5 57t110.5 186l15 84q4 37 4 69q0 104 -42 159q-56 71 -153 71q-49 0 -93.5 -17t-86.5 -53t-74 -101t-47 -154z" />
<glyph unicode="r" horiz-adv-x="821" d="M-4 0l180 1024h303l-35 -195q107 195 293 195h137l-38 -231h-199q-117 0 -171 -77t-85 -257l-82 -459h-303z" />
<glyph unicode="s" horiz-adv-x="1120" d="M-2 360l299 21q-3 -19 -3 -36q0 -19 4 -37q8 -32 26.5 -52.5t46 -33.5t56.5 -18t62 -5q77 0 131.5 29t61.5 75q5 29 -10.5 50.5t-47.5 33.5t-60 18t-66 11l-109 12q-62 8 -114 30t-92 60q-41 38 -57 97q-9 33 -9 71q0 30 6 62q17 98 94.5 170t182.5 105.5t221 33.5 q69 0 131.5 -12.5t116.5 -39t91 -64.5q37 -37 53 -93q9 -33 10 -70q0 -25 -5 -51l-299 -20q2 11 2 22q0 42 -33 66q-41 30 -108 30q-62 0 -106 -25t-50 -63q-1 -7 -1 -13q1 -28 25 -48q30 -24 91 -31l104 -12q56 -6 102 -16t99.5 -33.5t87 -56.5t50.5 -88q10 -32 10 -70 q0 -27 -5 -56q-16 -89 -67 -157.5t-126.5 -108.5t-162.5 -60t-182 -20q-97 0 -182 22t-153 67q-70 44 -102 122q-21 51 -20 112q0 33 6 70z" />
<glyph unicode="t" horiz-adv-x="835" d="M35 793l39 231h174l55 309l297 21l-57 -330h264l-39 -231h-266l-74 -414q-8 -43 -8 -72q0 -35 12 -49q20 -26 109 -27h127l-41 -231h-213q-170 0 -244 84q-50 57 -50 163q0 49 11 109l78 437h-174z" />
<glyph unicode="u" horiz-adv-x="1206" d="M57 350l119 674h303l-112 -641q-6 -34 -6 -61q0 -123 120 -123q90 0 156.5 69t99.5 209l97 547h303l-181 -1024h-303l31 172q-126 -205 -369 -205q-146 0 -218 96q-50 66 -50 178q0 50 10 109z" />
<glyph unicode="v" d="M74 1024h293l135 -653l381 653h295l-596 -1024h-295z" />
<glyph unicode="w" horiz-adv-x="1644" d="M115 1024h293l43 -623l303 623h243l84 -625l262 625h293l-430 -1024h-313l-84 635l-311 -635h-314z" />
<glyph unicode="x" horiz-adv-x="1128" d="M-106 0l468 518l-278 506h332l153 -276l250 276h332l-457 -506l287 -518h-332l-160 291l-264 -291h-331z" />
<glyph unicode="y" horiz-adv-x="1222" d="M74 1024h305l176 -670l395 670h305l-847 -1434h-306l242 410z" />
<glyph unicode="z" horiz-adv-x="1017" d="M-66 0l39 221l664 582h-561l39 221h895l-39 -221l-662 -582h559l-39 -221h-895z" />
<glyph unicode="{" horiz-adv-x="968" d="M86 512l16 88l23 129q232 0 278 250l33 192q27 147 136 221t274 74h192l-41 -231h-168q-59 0 -83 -24.5t-37 -102.5l-23 -129q-44 -252 -272 -369q188 -115 147 -348l-22 -129q-13 -79 1.5 -103t73.5 -24h168l-41 -231h-192q-165 0 -247.5 74t-57.5 221l35 192 q21 123 -30.5 186.5t-162.5 63.5z" />
<glyph unicode="|" horiz-adv-x="559" d="M-31 -217l320 1814h293l-320 -1814h-293z" />
<glyph unicode="}" horiz-adv-x="968" d="M-104 -225l41 231h167q60 0 84 24.5t37 102.5l23 129q21 117 86.5 203t183.5 145q-185 116 -141 369l22 129q13 79 -1.5 103t-73.5 24h-168l41 231h192q165 0 247.5 -74t55.5 -221l-33 -192q-46 -250 189 -250l-19 -108l-20 -109q-111 0 -184.5 -63.5t-94.5 -186.5 l-34 -192q-25 -147 -134 -221t-274 -74h-192z" />
<glyph unicode="~" horiz-adv-x="1024" d="M35 446q25 147 115 228t206 84q51 1 87.5 -11t56.5 -29.5t36 -35.5t36.5 -30.5t48.5 -12.5q33 0 61 30.5t39 88.5l225 -21q-27 -147 -117.5 -229t-203.5 -82q-62 0 -104.5 18.5t-60 40t-43.5 40t-59 18.5t-60.5 -29.5t-37.5 -87.5z" />
<glyph unicode="&#xa1;" horiz-adv-x="899" d="M14 -356l351 942h262l-310 -942h-303zM352 750l58 327h348l-58 -327h-348z" />
<glyph unicode="&#xa2;" horiz-adv-x="1179" d="M74 467q-18 95 2 223q21 124 76 225t131.5 166.5t165 105t184.5 50.5l63 360h150l-64 -358q85 -7 150 -31.5t116 -71.5t74.5 -126.5t16.5 -188.5l-303 -20q-3 87 -25.5 134t-71.5 64l-106 -606q105 31 164 187l295 -21q-24 -86 -63 -153.5t-85.5 -112t-105.5 -75 t-118.5 -45t-129.5 -19.5l-62 -351h-149l61 353q-92 10 -166 47t-128 103t-72 161zM379 692q-46 -254 104 -299l107 604q-81 -26 -136 -106.5t-75 -198.5z" />
<glyph unicode="&#xa3;" horiz-adv-x="1396" d="M-35 0l29 162q75 48 126 91.5t80 83t43.5 80t17 82t-0.5 89.5h-242l31 170h201q-7 146 18 293q34 196 199.5 305.5t423.5 109.5q118 0 215 -34.5t160 -97.5t87 -152.5t-3 -200.5l-303 -39q44 142 -14.5 217.5t-182.5 75.5q-117 0 -189 -41.5t-90 -140.5q-21 -123 -6 -295 h383l-30 -170h-343q2 -107 -25.5 -192t-107.5 -165h736l-41 -231h-1172z" />
<glyph unicode="&#xa4;" horiz-adv-x="1468" d="M74 188l182 156q-51 114 -27 252q23 133 115 252l-129 158l193 161l129 -155q129 71 264 71t239 -71l181 153l135 -164l-182 -153q48 -114 24 -248q-24 -135 -115 -254l129 -153l-192 -164l-129 155q-126 -71 -262 -71q-132 0 -238 69l-182 -155zM434 596 q-20 -114 47.5 -196t184.5 -83q117 2 212.5 84t114.5 199q20 116 -47 197.5t-182 81.5q-116 0 -212 -82.5t-118 -200.5z" />
<glyph unicode="&#xa5;" horiz-adv-x="1335" d="M84 260l27 150h350l33 184h-353l27 149h293l-314 691h328l230 -502l409 502h328l-559 -691h293l-27 -149h-352l-33 -184h354l-26 -150h-355l-45 -260h-303l45 260h-350z" />
<glyph unicode="&#xa6;" horiz-adv-x="559" d="M-29 -197l142 795h293l-142 -795h-293zM147 803l142 794h293l-142 -794h-293z" />
<glyph unicode="&#xa7;" horiz-adv-x="983" d="M-37 201l305 20q-10 -58 23.5 -110t91.5 -52q59 0 97 32.5t46 80.5q7 37 -20 68.5t-75 55.5t-107 48t-117 51.5t-104.5 60t-70.5 81t-14 106.5q25 156 205 223q-124 88 -94 256q26 144 160 244t327 100q129 0 223 -53t134 -137.5t22 -181.5l-305 -21q10 58 -23.5 110 t-91.5 52q-59 0 -97 -32.5t-46 -80.5q-7 -37 20 -68.5t75 -55.5t107 -48t117 -51.5t104.5 -60t70.5 -81t14 -106.5q-25 -156 -205 -223q124 -88 94 -256q-26 -144 -160 -244t-327 -100q-97 0 -176 31t-127 83t-68.5 119.5t-7.5 139.5zM328 684q-5 -28 3.5 -50.5t25.5 -38 t45 -29.5t56.5 -24.5t66.5 -22.5q7 -2 10 -3q83 24 96 94q5 28 -3.5 50.5t-25.5 38t-45 29.5t-56.5 24.5t-66.5 22.5q-2 0 -3.5 0.5l-3 1t-3.5 1.5q-83 -24 -96 -94z" />
<glyph unicode="&#xa8;" horiz-adv-x="1374" d="M371 1188l45 266h327l-45 -266h-327zM842 1188l45 266h327l-45 -266h-327z" />
<glyph unicode="&#xa9;" horiz-adv-x="1744" d="M102 717q36 209 171 386t331.5 280.5t405.5 103.5q155 0 286.5 -61t216 -164.5t120.5 -246t9 -298.5q-36 -208 -170.5 -385.5t-329.5 -281t-403 -103.5q-157 0 -289 61t-217.5 164.5t-121.5 246t-9 298.5zM274 717q-29 -163 27 -301t180.5 -217.5t288.5 -79.5 q162 0 313 79.5t254.5 217.5t132.5 301t-26.5 301t-179 217.5t-285.5 79.5q-164 0 -316 -79.5t-256 -217.5t-133 -301zM502 715q18 100 66 179t112 125t132 69.5t134 23.5q90 0 162.5 -32.5t117 -104.5t34.5 -172l-213 -15q0 87 -28 122.5t-101 35.5t-128 -60.5t-75 -170.5 t13.5 -168t107.5 -58q76 0 115.5 32.5t68.5 117.5l209 -14q-25 -100 -94.5 -170.5t-153.5 -101.5t-174 -31q-66 0 -126 23t-107.5 68t-68.5 123.5t-3 178.5z" />
<glyph unicode="&#xab;" horiz-adv-x="1626" d="M63 375l48 274q50 0 98 7t109.5 31t109.5 63t88.5 109.5t56.5 164.5h283q-30 -173 -142 -313.5t-280 -198.5q99 -39 162 -118.5t80.5 -179t-0.5 -214.5h-283q11 55 8 99.5t-10.5 80t-26 63.5t-38.5 48.5t-48 35t-53.5 24t-55.5 15t-55 7.5t-51 2zM805 375l47 274 q50 0 98 7t109.5 31t109.5 63t89 109.5t57 164.5h282q-30 -173 -141.5 -313.5t-279.5 -198.5q99 -39 162 -118.5t80 -179t-1 -214.5h-282q11 55 8 99.5t-10.5 80t-26 63.5t-38.5 48.5t-48 35t-53.5 24t-55.5 15t-55 7.5t-51 2z" />
<glyph unicode="&#xac;" horiz-adv-x="1351" d="M127 512l39 217h1026l-39 -217l-70 -397h-217l70 397h-809z" />
<glyph unicode="&#xad;" horiz-adv-x="1034" d="M123 489l41 232h706l-41 -232h-706z" />
<glyph unicode="&#xae;" horiz-adv-x="962" d="M96 1026q32 184 183.5 312t334.5 128q184 0 289.5 -127.5t73.5 -312.5q-34 -185 -184 -312.5t-334 -127.5q-120 0 -211.5 58t-132.5 159.5t-19 222.5zM201 1026q-26 -142 53.5 -239t222.5 -97q145 0 257 96t138 240q25 145 -52.5 240.5t-223.5 95.5q-143 0 -256.5 -96 t-138.5 -240zM332 809l80 459h163q28 0 55 -5.5t56.5 -19t44 -44t6.5 -73.5q-8 -46 -36.5 -68t-77.5 -30q56 -3 70.5 -22.5t8.5 -81.5l-14 -115h-121l15 121q5 37 -1 47t-34 10h-64l-30 -178h-121zM502 1085h51q58 0 63 41q4 22 -10 32.5t-39 10.5h-51z" />
<glyph unicode="&#xaf;" horiz-adv-x="1296" d="M367 1167l36 211h721l-37 -211h-720z" />
<glyph unicode="&#xb0;" horiz-adv-x="860" d="M158 1151q26 141 147 244.5t262 103.5t227 -103.5t60 -244.5q-25 -141 -147 -244.5t-263 -103.5t-226 103.5t-60 244.5zM379 1151q-9 -59 18.5 -93t85.5 -34q59 0 100 34.5t50 92.5q10 58 -18 92.5t-87 34.5q-58 0 -98 -34t-51 -93z" />
<glyph unicode="&#xb1;" horiz-adv-x="1226" d="M-10 -43l41 231h981l-41 -231h-981zM109 639l41 231h374l68 377h231l-67 -377h374l-40 -231h-375l-66 -373h-231l65 373h-374z" />
<glyph unicode="&#xb4;" horiz-adv-x="1009" d="M369 1188l184 287h303l-283 -287h-204z" />
<glyph unicode="&#xb5;" horiz-adv-x="1226" d="M-76 -408l131 744l2 14l119 674h303l-112 -641q-33 -184 114 -184q90 0 156.5 69t99.5 209l97 547h303l-181 -1024h-303l31 172q-126 -205 -369 -205h-22l-66 -375h-303z" />
<glyph unicode="&#xb6;" horiz-adv-x="1513" d="M103 883q0 49 8 108q14 81 48 148.5t77 112.5t97.5 79t104.5 53t104 31t91 15.5t69 3.5h857l-41 -232h-164l-238 -1345h-242l238 1345h-123l-237 -1345h-242l123 694h-86q-21 0 -44.5 1.5t-56 6.5t-63 13t-65 21t-63 31t-57.5 42.5t-47.5 56t-33 71.5t-14.5 89zM352 991 q-21 -117 44.5 -163t232.5 -46h45l74 420h-46q-166 0 -248 -47t-102 -164z" />
<glyph unicode="&#xb7;" horiz-adv-x="595" d="M61 367l58 327h348l-57 -327h-349z" />
<glyph unicode="&#xb8;" horiz-adv-x="1019" d="M111 -281l153 21q-6 -35 11 -52.5t49 -17.5q33 0 55.5 17.5t28.5 52.5q6 33 -11 50t-49 17q-45 0 -67 -26l-9 -12l-112 59l131 285h229l-141 -197q20 4 29 4q70 0 118.5 -47.5t34.5 -132.5q-17 -88 -88.5 -135t-169.5 -47q-93 0 -148.5 46t-43.5 115z" />
<glyph unicode="&#xbb;" horiz-adv-x="1626" d="M-45 0q32 174 143 314t279 198q-99 39 -161 118.5t-81.5 180t0.5 213.5h283q-11 -55 -8 -99.5t10.5 -80t26.5 -63.5t39 -48.5t48 -35t54 -24t56 -15t55 -7.5t51 -2l-48 -274q-50 0 -98.5 -7t-110 -31t-109.5 -63t-89 -109.5t-57 -164.5h-283zM696 0q32 174 143 314 t279 198q-99 39 -161 118.5t-81 180t1 213.5h282q-11 -55 -8 -99.5t10.5 -80t26.5 -63.5t39 -48.5t48 -35t54 -24t56 -15t55 -7.5t51 -2l-47 -274q-50 0 -98.5 -7t-110 -31t-110 -63t-89.5 -109.5t-57 -164.5h-283z" />
<glyph unicode="&#xbc;" horiz-adv-x="1814" d="M164 717l29 157h184l43 256q-50 -57 -131 -57h-62l27 156h61q72 0 99 22t47 103l2 18q6 25 12 62h182l-98 -560h184l-28 -157h-551zM195 0l1310 1466h221l-1310 -1466h-221zM944 158l25 145q207 84 266 414h186q-18 -104 -67.5 -214.5t-132.5 -189.5h186l72 404h182 l-72 -404h92l-26 -155h-92l-29 -158h-182l28 158h-436z" />
<glyph unicode="&#xbd;" horiz-adv-x="1792" d="M164 717l29 157h184l43 256q-50 -57 -131 -57h-62l27 156h61q72 0 99 22t47 103l2 18q6 25 12 62h182l-98 -560h184l-28 -157h-551zM195 0l1310 1466h221l-1310 -1466h-221zM1010 0l24 133q13 7 72 35.5t114 58t116.5 68.5t103 85.5t49.5 90.5q18 107 -90 107 q-47 0 -82.5 -39t-48.5 -113l-178 20q25 138 111 212.5t224 74.5q134 0 199.5 -75.5t46.5 -186.5q-9 -50 -38.5 -96.5t-75 -85.5t-92 -69.5t-105.5 -61.5h272l-28 -158h-594z" />
<glyph unicode="&#xbe;" horiz-adv-x="1794" d="M123 952l188 21q-10 -57 20 -85t81 -28q129 0 141 76q5 29 -12.5 46t-42.5 22.5t-60 5.5h-92l29 159h92q47 0 78 17t35 47q6 30 -19 45.5t-72 15.5q-101 0 -114 -80l-178 21q13 83 101 149t218 66q134 0 199 -61t47 -156q-16 -101 -115 -139q109 -40 90 -158 q-19 -107 -116 -171.5t-236 -64.5q-136 0 -208.5 71.5t-53.5 180.5zM156 0l1310 1466h222l-1311 -1466h-221zM903 158l25 145q207 84 266 414h186q-18 -104 -67.5 -214.5t-132.5 -189.5h186l72 404h182l-72 -404h92l-26 -155h-92l-29 -158h-182l28 158h-436z" />
<glyph unicode="&#xbf;" horiz-adv-x="1218" d="M-31 72q22 124 96 216.5t177.5 142.5t230.5 65l31 172h293l-58 -330q-198 0 -321.5 -71t-145.5 -195q-12 -66 0 -113t42.5 -71.5t65.5 -35t77 -10.5t82.5 15t82 48t74 97t47.5 152l291 -21q-18 -108 -71.5 -203t-132.5 -166t-186.5 -112t-227.5 -41q-242 0 -362.5 129 t-84.5 332zM512 811l47 266h328l-47 -266h-328z" />
<glyph unicode="&#xc0;" horiz-adv-x="1480" d="M-86 0l801 1434h305l293 -1434h-305l-74 360h-514l-201 -360h-305zM551 592h336l-90 440zM594 1884h303l86 -287h-205z" />
<glyph unicode="&#xc1;" horiz-adv-x="1480" d="M-86 0l801 1434h305l293 -1434h-305l-74 360h-514l-201 -360h-305zM551 592h336l-90 440zM788 1597l185 287h303l-283 -287h-205z" />
<glyph unicode="&#xc2;" horiz-adv-x="1480" d="M-86 0l801 1434h305l293 -1434h-305l-74 360h-514l-201 -360h-305zM508 1597l217 287h418l119 -287h-254l-88 205l-158 -205h-254zM551 592h336l-90 440z" />
<glyph unicode="&#xc3;" horiz-adv-x="1480" d="M-86 0l801 1434h305l293 -1434h-305l-74 360h-514l-201 -360h-305zM459 1618q18 99 68 170t114.5 105t138.5 36q51 1 88 -11t57 -29.5t36.5 -35.5t37 -30.5t48.5 -12.5q33 0 60.5 30.5t37.5 88.5l225 -20q-25 -147 -115.5 -229.5t-203.5 -82.5q-62 0 -104.5 18.5t-60 40 t-43.5 40t-59 18.5t-60.5 -29.5t-37.5 -87.5zM551 592h336l-90 440z" />
<glyph unicode="&#xc4;" horiz-adv-x="1480" d="M-86 0l801 1434h305l293 -1434h-305l-74 360h-514l-201 -360h-305zM487 1597l45 267h328l-45 -267h-328zM551 592h336l-90 440zM958 1597l46 267h327l-45 -267h-328z" />
<glyph unicode="&#xc5;" horiz-adv-x="1480" d="M-86 0l801 1434h305l293 -1434h-305l-74 360h-514l-201 -360h-305zM551 592h336l-90 440zM682 1772q17 98 103 170.5t184 72.5t157.5 -72.5t42.5 -170.5t-102.5 -171t-183.5 -73t-158 73t-43 171zM838 1772q-6 -38 14.5 -63.5t58.5 -25.5t67.5 25.5t35.5 63.5 q7 38 -13.5 63t-58.5 25t-67 -25t-37 -63z" />
<glyph unicode="&#xc6;" horiz-adv-x="1792" d="M-86 0l801 1434h1102l-41 -232h-709l70 -342h475l-41 -231h-387l82 -398h338l-41 -231h-555l-74 360h-514l-201 -360h-305zM551 592h336l-90 440z" />
<glyph unicode="&#xc7;" horiz-adv-x="1546" d="M71 457q-16 114 11 256q27 154 91.5 282t149.5 213.5t186.5 145t201 86t194.5 26.5q94 0 179.5 -21t160 -66.5t127.5 -112t80.5 -164.5t20.5 -217l-308 -21q2 184 -68.5 267t-236.5 83q-171 0 -303.5 -137t-171.5 -364q-41 -227 43 -360.5t256 -133.5q168 0 265.5 78 t160.5 260l301 -20q-32 -107 -85.5 -196.5t-119 -152t-144.5 -109t-160 -71.5t-167 -35l-41 -57q20 4 29 4q70 0 119 -47.5t35 -132.5q-16 -88 -88.5 -135t-170.5 -47q-93 0 -148.5 46t-43.5 115l154 21q-11 -70 59 -70q33 0 55.5 17.5t28.5 52.5q6 33 -10.5 50t-48.5 17 q-46 0 -68 -26l-8 -12l-113 59l68 145q-87 13 -163.5 47t-143.5 94t-108 144.5t-57 198.5z" />
<glyph unicode="&#xc8;" horiz-adv-x="1204" d="M16 0l254 1434h959l-41 -232h-656l-61 -342h553l-41 -231h-553l-70 -398h656l-41 -231h-959zM475 1843h303l86 -287h-205z" />
<glyph unicode="&#xc9;" horiz-adv-x="1204" d="M16 0l254 1434h959l-41 -232h-656l-61 -342h553l-41 -231h-553l-70 -398h656l-41 -231h-959zM670 1556l184 287h303l-283 -287h-204z" />
<glyph unicode="&#xca;" horiz-adv-x="1204" d="M16 0l254 1434h959l-41 -232h-656l-61 -342h553l-41 -231h-553l-70 -398h656l-41 -231h-959zM389 1614l217 287h418l119 -287h-254l-88 205l-158 -205h-254z" />
<glyph unicode="&#xcb;" horiz-adv-x="1204" d="M16 0l254 1434h959l-41 -232h-656l-61 -342h553l-41 -231h-553l-70 -398h656l-41 -231h-959zM369 1597l45 267h327l-45 -267h-327zM840 1597l45 267h327l-45 -267h-327z" />
<glyph unicode="&#xcc;" horiz-adv-x="606" d="M33 0l254 1434h303l-254 -1434h-303zM164 1884h303l86 -287h-205z" />
<glyph unicode="&#xcd;" horiz-adv-x="581" d="M16 0l254 1434h303l-254 -1434h-303zM342 1597l184 287h303l-282 -287h-205z" />
<glyph unicode="&#xce;" horiz-adv-x="669" d="M68 0l254 1434h303l-254 -1434h-303zM113 1597l217 287h418l118 -287h-254l-88 205l-157 -205h-254z" />
<glyph unicode="&#xcf;" horiz-adv-x="737" d="M100 0l254 1434h303l-254 -1434h-303zM125 1597l45 267h328l-45 -267h-328zM596 1597l45 267h328l-45 -267h-328z" />
<glyph unicode="&#xd0;" horiz-adv-x="1388" d="M-82 602l41 232h164l106 600h502q40 0 71.5 -1.5t81.5 -6t89 -16t88 -28.5t84.5 -45.5t72.5 -66t59.5 -91.5t37 -120t12.5 -153t-20 -189q-25 -144 -74.5 -258.5t-105.5 -188t-132 -127.5t-139.5 -80.5t-143.5 -41.5t-127.5 -18t-107.5 -3h-502l107 602h-164zM319 231 h179q230 0 344.5 109.5t161.5 376.5q18 101 21.5 174.5t-8.5 128.5t-37 89.5t-70 55.5t-102 29t-138 8h-178l-66 -368h205l-41 -232h-205z" />
<glyph unicode="&#xd1;" horiz-adv-x="1523" d="M16 0l254 1434h342l414 -1010l178 1010h303l-254 -1434h-362l-399 975l-173 -975h-303zM479 1618q26 146 117 227t205 84q51 1 88 -11t56.5 -29.5t36 -35.5t37 -30.5t48.5 -12.5q33 0 60.5 30.5t37.5 88.5l226 -20q-25 -147 -116 -229.5t-204 -82.5q-51 0 -88 12 t-56.5 29.5t-36 34.5t-37 29t-48.5 12q-33 0 -60.5 -29.5t-37.5 -87.5z" />
<glyph unicode="&#xd2;" horiz-adv-x="1583" d="M72.5 435q-20.5 123 9.5 282q27 154 90.5 281.5t147 212.5t186 144t208 85t212.5 26t202.5 -27t177.5 -83.5t133.5 -145t71.5 -211.5t-10 -282q-27 -154 -90 -281.5t-146.5 -213t-186 -144t-207.5 -85t-212 -26.5t-202.5 27t-178 84t-134 145.5t-72 211.5zM395 717 q-25 -143 2.5 -256t107 -177.5t200.5 -64.5q181 0 312.5 139t170.5 359q39 218 -45 357.5t-262 139.5q-179 0 -313 -139.5t-173 -357.5zM645 1884h303l86 -287h-205z" />
<glyph unicode="&#xd3;" horiz-adv-x="1583" d="M72.5 435q-20.5 123 9.5 282q27 154 90.5 281.5t147 212.5t186 144t208 85t212.5 26t202.5 -27t177.5 -83.5t133.5 -145t71.5 -211.5t-10 -282q-27 -154 -90 -281.5t-146.5 -213t-186 -144t-207.5 -85t-212 -26.5t-202.5 27t-178 84t-134 145.5t-72 211.5zM395 717 q-25 -143 2.5 -256t107 -177.5t200.5 -64.5q181 0 312.5 139t170.5 359q39 218 -45 357.5t-262 139.5q-179 0 -313 -139.5t-173 -357.5zM819 1597l185 287h303l-283 -287h-205z" />
<glyph unicode="&#xd4;" horiz-adv-x="1583" d="M72.5 435q-20.5 123 9.5 282q27 154 90.5 281.5t147 212.5t186 144t208 85t212.5 26t202.5 -27t177.5 -83.5t133.5 -145t71.5 -211.5t-10 -282q-27 -154 -90 -281.5t-146.5 -213t-186 -144t-207.5 -85t-212 -26.5t-202.5 27t-178 84t-134 145.5t-72 211.5zM395 717 q-25 -143 2.5 -256t107 -177.5t200.5 -64.5q181 0 312.5 139t170.5 359q39 218 -45 357.5t-262 139.5q-179 0 -313 -139.5t-173 -357.5zM559 1597l217 287h418l119 -287h-254l-88 205l-158 -205h-254z" />
<glyph unicode="&#xd5;" horiz-adv-x="1583" d="M72.5 435q-20.5 123 9.5 282q27 154 90.5 281.5t147 212.5t186 144t208 85t212.5 26t202.5 -27t177.5 -83.5t133.5 -145t71.5 -211.5t-10 -282q-27 -154 -90 -281.5t-146.5 -213t-186 -144t-207.5 -85t-212 -26.5t-202.5 27t-178 84t-134 145.5t-72 211.5zM395 717 q-25 -143 2.5 -256t107 -177.5t200.5 -64.5q181 0 312.5 139t170.5 359q39 218 -45 357.5t-262 139.5q-179 0 -313 -139.5t-173 -357.5zM510 1618q18 99 68 170t114.5 105t138.5 36q51 1 88 -11t57 -29.5t36.5 -35.5t37 -30.5t48.5 -12.5q33 0 60.5 30.5t37.5 88.5l225 -20 q-25 -147 -115.5 -229.5t-203.5 -82.5q-51 0 -88 12t-56.5 29.5t-36 34.5t-37 29t-48.5 12q-34 0 -61.5 -29.5t-37.5 -87.5z" />
<glyph unicode="&#xd6;" horiz-adv-x="1583" d="M72.5 435q-20.5 123 9.5 282q27 154 90.5 281.5t147 212.5t186 144t208 85t212.5 26t202.5 -27t177.5 -83.5t133.5 -145t71.5 -211.5t-10 -282q-27 -154 -90 -281.5t-146.5 -213t-186 -144t-207.5 -85t-212 -26.5t-202.5 27t-178 84t-134 145.5t-72 211.5zM395 717 q-25 -143 2.5 -256t107 -177.5t200.5 -64.5q181 0 312.5 139t170.5 359q39 218 -45 357.5t-262 139.5q-179 0 -313 -139.5t-173 -357.5zM539 1597l45 267h327l-45 -267h-327zM1010 1597l45 267h327l-45 -267h-327z" />
<glyph unicode="&#xd7;" horiz-adv-x="1128" d="M37 313l344 293l-242 295l193 162l241 -295l349 297l133 -164l-348 -295l241 -295l-190 -161l-242 294l-346 -292z" />
<glyph unicode="&#xd8;" horiz-adv-x="1564" d="M-172 -135l319 336q-132 200 -75 516q27 154 90.5 281.5t146.5 212.5t186 144t208 85t212 26q204 0 353 -92l182 193h285l-320 -334q133 -202 76 -516q-27 -154 -90 -281.5t-146.5 -213t-186 -144t-207.5 -85t-212 -26.5q-203 0 -352 92l-184 -194h-285zM385 717 q-27 -147 4 -262l670 702q-75 57 -189 57q-179 0 -312.5 -139.5t-172.5 -357.5zM504 276q79 -57 190 -57q181 0 313 139.5t171 358.5q24 146 -4 260z" />
<glyph unicode="&#xd9;" horiz-adv-x="1443" d="M105 328q-15 92 6 209l159 897h303l-159 -897q-9 -66 -9.5 -115t15 -84.5t34.5 -58.5t50 -36.5t62 -18.5t69 -5q59 0 106.5 13t94 45.5t80 98t49.5 161.5l159 897h303l-159 -897q-20 -114 -67 -208.5t-112.5 -160.5t-147 -112t-170 -67.5t-181.5 -21.5t-174 22t-147 66.5 t-107.5 112.5t-56.5 160zM575 1884h304l86 -287h-205z" />
<glyph unicode="&#xda;" horiz-adv-x="1443" d="M105 328q-15 92 6 209l159 897h303l-159 -897q-9 -66 -9.5 -115t15 -84.5t34.5 -58.5t50 -36.5t62 -18.5t69 -5q59 0 106.5 13t94 45.5t80 98t49.5 161.5l159 897h303l-159 -897q-20 -114 -67 -208.5t-112.5 -160.5t-147 -112t-170 -67.5t-181.5 -21.5t-174 22t-147 66.5 t-107.5 112.5t-56.5 160zM770 1597l184 287h303l-282 -287h-205z" />
<glyph unicode="&#xdb;" horiz-adv-x="1443" d="M105 328q-15 92 6 209l159 897h303l-159 -897q-9 -66 -9.5 -115t15 -84.5t34.5 -58.5t50 -36.5t62 -18.5t69 -5q59 0 106.5 13t94 45.5t80 98t49.5 161.5l159 897h303l-159 -897q-20 -114 -67 -208.5t-112.5 -160.5t-147 -112t-170 -67.5t-181.5 -21.5t-174 22t-147 66.5 t-107.5 112.5t-56.5 160zM489 1597l218 287h417l119 -287h-254l-88 205l-158 -205h-254z" />
<glyph unicode="&#xdc;" horiz-adv-x="1443" d="M105 328q-15 92 6 209l159 897h303l-159 -897q-9 -66 -9.5 -115t15 -84.5t34.5 -58.5t50 -36.5t62 -18.5t69 -5q59 0 106.5 13t94 45.5t80 98t49.5 161.5l159 897h303l-159 -897q-20 -114 -67 -208.5t-112.5 -160.5t-147 -112t-170 -67.5t-181.5 -21.5t-174 22t-147 66.5 t-107.5 112.5t-56.5 160zM469 1597l45 267h328l-45 -267h-328zM940 1597l45 267h328l-45 -267h-328z" />
<glyph unicode="&#xdd;" horiz-adv-x="1277" d="M147 1434h306l211 -635l405 635h315l-913 -1434h-315l288 455zM686 1597l184 287h304l-283 -287h-205z" />
<glyph unicode="&#xde;" horiz-adv-x="1290" d="M16 0l254 1434h303l-53 -295h219q50 0 104 -6t133.5 -31.5t135 -67.5t87 -124.5t11.5 -192.5q-14 -80 -50 -145.5t-81 -108t-103.5 -75t-110.5 -49t-109.5 -27t-94 -13t-69.5 -2.5h-219l-54 -297h-303zM414 528h178q144 0 220.5 42.5t94.5 146.5t-44 147t-206 43h-178z " />
<glyph unicode="&#xdf;" horiz-adv-x="1392" d="M16 0l166 942q19 108 64.5 196t108.5 148.5t142.5 101t166 59.5t180.5 19q153 0 268.5 -52t171.5 -147.5t35 -215.5q-39 -221 -258 -295q122 -31 174 -106.5t27 -217.5q-26 -150 -113.5 -248t-217.5 -141t-306 -43h-123l43 238h123q116 0 192 46t94 148q19 101 -42 148 t-177 47h-123l43 237h82q244 0 279 187q15 92 -37.5 138t-175.5 46t-208 -78t-110 -215l-166 -942h-303z" />
<glyph unicode="&#xe0;" d="M2 268q11 60 36.5 108t66 82.5t83.5 59.5t104.5 44t112.5 30.5t123 23.5q17 3 47 7.5t43 7t35 7.5t31.5 9.5t23 13t18.5 18.5t9 24.5t4 33.5q-3 88 -153 88q-85 0 -135 -41t-62 -94l-299 21q4 19 10 39t23 56t41 67t66.5 66.5t95 60t130.5 41t171 16.5q245 0 340.5 -110 t54.5 -341l-107 -606h-292l36 207q-60 -105 -153.5 -170.5t-218.5 -65.5q-142 0 -225 81.5t-60 215.5zM313 305q-10 -52 20 -77t87 -25q96 0 179 69.5t103 176.5l13 69q-28 -29 -80 -48.5t-148 -41.5q-160 -35 -174 -123zM354 1475h303l86 -287h-204z" />
<glyph unicode="&#xe1;" d="M2 268q11 60 36.5 108t66 82.5t83.5 59.5t104.5 44t112.5 30.5t123 23.5q17 3 47 7.5t43 7t35 7.5t31.5 9.5t23 13t18.5 18.5t9 24.5t4 33.5q-3 88 -153 88q-85 0 -135 -41t-62 -94l-299 21q4 19 10 39t23 56t41 67t66.5 66.5t95 60t130.5 41t171 16.5q245 0 340.5 -110 t54.5 -341l-107 -606h-292l36 207q-60 -105 -153.5 -170.5t-218.5 -65.5q-142 0 -225 81.5t-60 215.5zM313 305q-10 -52 20 -77t87 -25q96 0 179 69.5t103 176.5l13 69q-28 -29 -80 -48.5t-148 -41.5q-160 -35 -174 -123zM569 1188l185 287h303l-283 -287h-205z" />
<glyph unicode="&#xe2;" d="M2 268q11 60 36.5 108t66 82.5t83.5 59.5t104.5 44t112.5 30.5t123 23.5q17 3 47 7.5t43 7t35 7.5t31.5 9.5t23 13t18.5 18.5t9 24.5t4 33.5q-3 88 -153 88q-85 0 -135 -41t-62 -94l-299 21q4 19 10 39t23 56t41 67t66.5 66.5t95 60t130.5 41t171 16.5q245 0 340.5 -110 t54.5 -341l-107 -606h-292l36 207q-60 -105 -153.5 -170.5t-218.5 -65.5q-142 0 -225 81.5t-60 215.5zM287 1188l217 287h418l118 -287h-254l-88 205l-157 -205h-254zM313 305q-10 -52 20 -77t87 -25q96 0 179 69.5t103 176.5l13 69q-28 -29 -80 -48.5t-148 -41.5 q-160 -35 -174 -123z" />
<glyph unicode="&#xe3;" d="M2 268q11 60 36.5 108t66 82.5t83.5 59.5t104.5 44t112.5 30.5t123 23.5q17 3 47 7.5t43 7t35 7.5t31.5 9.5t23 13t18.5 18.5t9 24.5t4 33.5q-3 88 -153 88q-85 0 -135 -41t-62 -94l-299 21q4 19 10 39t23 56t41 67t66.5 66.5t95 60t130.5 41t171 16.5q245 0 340.5 -110 t54.5 -341l-107 -606h-292l36 207q-60 -105 -153.5 -170.5t-218.5 -65.5q-142 0 -225 81.5t-60 215.5zM238 1208q18 99 68 170.5t114.5 105.5t138.5 36q51 1 88 -11t56.5 -29.5t36 -35.5t37 -30.5t48.5 -12.5q33 0 61 30.5t38 88.5l225 -21q-25 -147 -116 -229t-204 -82 q-51 0 -88 12t-56.5 29.5t-36 34.5t-37 29t-48.5 12q-33 0 -60.5 -29.5t-37.5 -87.5zM313 305q-10 -52 20 -77t87 -25q96 0 179 69.5t103 176.5l13 69q-28 -29 -80 -48.5t-148 -41.5q-160 -35 -174 -123z" />
<glyph unicode="&#xe4;" d="M2 268q11 60 36.5 108t66 82.5t83.5 59.5t104.5 44t112.5 30.5t123 23.5q17 3 47 7.5t43 7t35 7.5t31.5 9.5t23 13t18.5 18.5t9 24.5t4 33.5q-3 88 -153 88q-85 0 -135 -41t-62 -94l-299 21q4 19 10 39t23 56t41 67t66.5 66.5t95 60t130.5 41t171 16.5q245 0 340.5 -110 t54.5 -341l-107 -606h-292l36 207q-60 -105 -153.5 -170.5t-218.5 -65.5q-142 0 -225 81.5t-60 215.5zM266 1188l45 266h328l-45 -266h-328zM313 305q-10 -52 20 -77t87 -25q96 0 179 69.5t103 176.5l13 69q-28 -29 -80 -48.5t-148 -41.5q-160 -35 -174 -123zM737 1188 l45 266h328l-45 -266h-328z" />
<glyph unicode="&#xe5;" d="M2 268q11 60 36.5 108t66 82.5t83.5 59.5t104.5 44t112.5 30.5t123 23.5q17 3 47 7.5t43 7t35 7.5t31.5 9.5t23 13t18.5 18.5t9 24.5t4 33.5q-3 88 -153 88q-85 0 -135 -41t-62 -94l-299 21q4 19 10 39t23 56t41 67t66.5 66.5t95 60t130.5 41t171 16.5q245 0 340.5 -110 t54.5 -341l-107 -606h-292l36 207q-60 -105 -153.5 -170.5t-218.5 -65.5q-142 0 -225 81.5t-60 215.5zM313 305q-10 -52 20 -77t87 -25q96 0 179 69.5t103 176.5l13 69q-28 -29 -80 -48.5t-148 -41.5q-160 -35 -174 -123zM463 1403q17 98 103 171t184 73t157.5 -73 t42.5 -171t-102.5 -171t-183.5 -73t-158 73t-43 171zM618 1403q-6 -38 15 -63t59 -25t67.5 25t35.5 63q7 38 -13.5 63t-58.5 25t-67.5 -25t-37.5 -63z" />
<glyph unicode="&#xe6;" horiz-adv-x="1798" d="M2 268q11 60 36.5 108t66 82.5t83.5 59.5t104.5 44t112.5 30.5t123 23.5q17 3 47 7.5t43 7t35 7.5t31.5 9.5t23 13t18.5 18.5t9 24.5t4 33.5q-3 88 -153 88q-85 0 -135 -41t-62 -94l-299 21q4 19 10 39t23 56t41 67t66.5 66.5t95 60t130.5 41t171 16.5q98 0 180.5 -38 t124.5 -108q69 71 164.5 108.5t189.5 37.5q95 0 174 -31.5t139 -98t80 -171t-2 -250.5l-10 -55h-702q-22 -124 20.5 -188t149.5 -64q94 0 146.5 40t70.5 85l288 -21q-22 -99 -106 -177t-200 -118.5t-240 -40.5q-59 0 -114.5 9.5t-114.5 32.5t-103 69.5t-64 111.5 q-133 -219 -411 -219q-142 0 -225 81.5t-60 215.5zM313 305q-10 -52 20 -77t87 -25q240 0 291 293l4 20q-29 -28 -81 -47t-147 -41q-160 -35 -174 -123zM997 631h428q13 82 -32.5 138t-147.5 56t-168.5 -56.5t-79.5 -137.5z" />
<glyph unicode="&#xe7;" horiz-adv-x="1181" d="M40 290q-16 93 3 216q24 136 87.5 244t151 173.5t187.5 99.5t205 34q80 0 144.5 -11.5t122.5 -40.5t96 -75.5t57 -121t12 -171.5l-303 -21q-3 114 -42 161.5t-128 47.5q-109 0 -185.5 -86.5t-101.5 -230.5q-55 -309 176 -309q83 0 142.5 43.5t99.5 152.5l297 -20 q-105 -372 -490 -404l-39 -55q20 4 29 4q70 0 119 -47.5t35 -132.5q-17 -88 -88.5 -135t-169.5 -47q-93 0 -149 46t-44 115l154 21q-11 -70 59 -70q33 0 55.5 17.5t28.5 52.5q6 33 -10.5 50t-48.5 17q-46 0 -68 -26l-8 -12l-113 59l68 147q-87 14 -156 52.5t-119 104 t-66 158.5z" />
<glyph unicode="&#xe8;" horiz-adv-x="1169" d="M36.5 300q-15.5 89 6.5 206q20 113 66.5 206.5t108 156t136.5 106t151 63t152 19.5q95 0 174.5 -31.5t139.5 -98t80 -171t-2 -250.5l-11 -55h-702q-22 -124 20.5 -188t149.5 -64q94 0 146.5 40t70.5 85l289 -21q-22 -99 -106.5 -177t-200.5 -118.5t-240 -40.5 q-76 0 -145 18.5t-130 58.5t-99.5 103.5t-54 152.5zM369 631h428q13 82 -33 138t-148 56t-168 -56.5t-79 -137.5zM377 1475h303l86 -287h-205z" />
<glyph unicode="&#xe9;" horiz-adv-x="1169" d="M36.5 300q-15.5 89 6.5 206q20 113 66.5 206.5t108 156t136.5 106t151 63t152 19.5q95 0 174.5 -31.5t139.5 -98t80 -171t-2 -250.5l-11 -55h-702q-22 -124 20.5 -188t149.5 -64q94 0 146.5 40t70.5 85l289 -21q-22 -99 -106.5 -177t-200.5 -118.5t-240 -40.5 q-76 0 -145 18.5t-130 58.5t-99.5 103.5t-54 152.5zM369 631h428q13 82 -33 138t-148 56t-168 -56.5t-79 -137.5zM571 1188l185 287h303l-283 -287h-205z" />
<glyph unicode="&#xea;" horiz-adv-x="1169" d="M36.5 300q-15.5 89 6.5 206q20 113 66.5 206.5t108 156t136.5 106t151 63t152 19.5q95 0 174.5 -31.5t139.5 -98t80 -171t-2 -250.5l-11 -55h-702q-22 -124 20.5 -188t149.5 -64q94 0 146.5 40t70.5 85l289 -21q-22 -99 -106.5 -177t-200.5 -118.5t-240 -40.5 q-76 0 -145 18.5t-130 58.5t-99.5 103.5t-54 152.5zM289 1188l217 287h418l118 -287h-254l-88 205l-157 -205h-254zM369 631h428q13 82 -33 138t-148 56t-168 -56.5t-79 -137.5z" />
<glyph unicode="&#xeb;" horiz-adv-x="1169" d="M36.5 300q-15.5 89 6.5 206q20 113 66.5 206.5t108 156t136.5 106t151 63t152 19.5q95 0 174.5 -31.5t139.5 -98t80 -171t-2 -250.5l-11 -55h-702q-22 -124 20.5 -188t149.5 -64q94 0 146.5 40t70.5 85l289 -21q-22 -99 -106.5 -177t-200.5 -118.5t-240 -40.5 q-76 0 -145 18.5t-130 58.5t-99.5 103.5t-54 152.5zM268 1188l45 266h328l-45 -266h-328zM369 631h428q13 82 -33 138t-148 56t-168 -56.5t-79 -137.5zM739 1188l45 266h328l-45 -266h-328z" />
<glyph unicode="&#xec;" horiz-adv-x="577" d="M25 0l180 1024h303l-180 -1024h-303zM92 1475h303l86 -287h-205z" />
<glyph unicode="&#xed;" horiz-adv-x="571" d="M-4 0l180 1024h303l-180 -1024h-303zM258 1188l184 287h303l-282 -287h-205z" />
<glyph unicode="&#xee;" horiz-adv-x="638" d="M25 1188l217 287h417l119 -287h-254l-88 205l-157 -205h-254zM41 0l180 1024h303l-180 -1024h-303z" />
<glyph unicode="&#xef;" horiz-adv-x="698" d="M33 1188l45 266h328l-46 -266h-327zM70 0l180 1024h303l-180 -1024h-303zM504 1188l45 266h328l-46 -266h-327z" />
<glyph unicode="&#xf0;" horiz-adv-x="1222" d="M35 459q25 143 114.5 256t224.5 175t292 62q189 0 264 -147q0 215 -142 332l-444 -209l29 159l266 125q-86 27 -195 27l39 225q241 0 418 -127l305 144l-28 -160l-174 -82q96 -114 130 -277.5t-1 -388.5q-54 -297 -226.5 -450.5t-414.5 -155.5q-234 -2 -365 134t-92 358z M338 463q-22 -120 31 -192t163 -72q112 0 192.5 72t102.5 192q22 119 -33.5 188.5t-168.5 69.5q-112 0 -188.5 -69t-98.5 -189z" />
<glyph unicode="&#xf1;" horiz-adv-x="1206" d="M-4 0l180 1024h303l-30 -176q127 209 368 209q146 0 219 -96t39 -287l-119 -674h-303l113 641q35 184 -115 184q-96 0 -165 -81t-99 -246l-88 -498h-303zM258 1208q18 99 68 170.5t115 105.5t139 36q51 1 88 -11t56.5 -29.5t36 -35.5t37 -30.5t48.5 -12.5q33 0 60.5 30.5 t37.5 88.5l225 -21q-25 -147 -115.5 -229t-203.5 -82q-51 0 -88 12t-56.5 29.5t-36 34.5t-37 29t-48.5 12q-34 0 -61.5 -29.5t-37.5 -87.5z" />
<glyph unicode="&#xf2;" horiz-adv-x="1230" d="M45 512q20 109 66.5 200t108.5 154t138.5 106.5t156.5 64t161 20.5t154 -20.5t134 -63t100.5 -107.5t54 -153.5t-6.5 -200.5q-19 -110 -65 -201t-108 -154t-138.5 -106.5t-156.5 -63.5t-161 -20q-103 0 -190.5 33t-152.5 97t-92 171.5t-3 243.5zM348 512 q-26 -152 20.5 -232.5t155.5 -80.5t185 81t102 232q27 151 -20 232t-156 81t-184.5 -80.5t-102.5 -232.5zM408 1475h303l86 -287h-205z" />
<glyph unicode="&#xf3;" horiz-adv-x="1230" d="M45 512q20 109 66.5 200t108.5 154t138.5 106.5t156.5 64t161 20.5t154 -20.5t134 -63t100.5 -107.5t54 -153.5t-6.5 -200.5q-19 -110 -65 -201t-108 -154t-138.5 -106.5t-156.5 -63.5t-161 -20q-103 0 -190.5 33t-152.5 97t-92 171.5t-3 243.5zM348 512 q-26 -152 20.5 -232.5t155.5 -80.5t185 81t102 232q27 151 -20 232t-156 81t-184.5 -80.5t-102.5 -232.5zM602 1188l184 287h304l-283 -287h-205z" />
<glyph unicode="&#xf4;" horiz-adv-x="1230" d="M45 512q20 109 66.5 200t108.5 154t138.5 106.5t156.5 64t161 20.5t154 -20.5t134 -63t100.5 -107.5t54 -153.5t-6.5 -200.5q-19 -110 -65 -201t-108 -154t-138.5 -106.5t-156.5 -63.5t-161 -20q-103 0 -190.5 33t-152.5 97t-92 171.5t-3 243.5zM348 512 q-26 -152 20.5 -232.5t155.5 -80.5t185 81t102 232q27 151 -20 232t-156 81t-184.5 -80.5t-102.5 -232.5zM428 1188l217 287h418l119 -287h-254l-88 205l-158 -205h-254z" />
<glyph unicode="&#xf5;" horiz-adv-x="1230" d="M45 512q20 109 66.5 200t108.5 154t138.5 106.5t156.5 64t161 20.5t154 -20.5t134 -63t100.5 -107.5t54 -153.5t-6.5 -200.5q-19 -110 -65 -201t-108 -154t-138.5 -106.5t-156.5 -63.5t-161 -20q-103 0 -190.5 33t-152.5 97t-92 171.5t-3 243.5zM270 1208q18 99 68 170.5 t115 105.5t139 36q51 1 88 -11t56.5 -29.5t36 -35.5t37 -30.5t48.5 -12.5q33 0 60.5 30.5t37.5 88.5l226 -21q-25 -147 -116 -229t-204 -82q-51 0 -88 12t-56.5 29.5t-36 34.5t-37 29t-48.5 12q-33 0 -60.5 -29.5t-37.5 -87.5zM348 512q-26 -152 20.5 -232.5t155.5 -80.5 t185 81t102 232q27 151 -20 232t-156 81t-184.5 -80.5t-102.5 -232.5z" />
<glyph unicode="&#xf6;" horiz-adv-x="1230" d="M45 512q20 109 66.5 200t108.5 154t138.5 106.5t156.5 64t161 20.5t154 -20.5t134 -63t100.5 -107.5t54 -153.5t-6.5 -200.5q-19 -110 -65 -201t-108 -154t-138.5 -106.5t-156.5 -63.5t-161 -20q-103 0 -190.5 33t-152.5 97t-92 171.5t-3 243.5zM299 1188l45 266h328 l-45 -266h-328zM348 512q-26 -152 20.5 -232.5t155.5 -80.5t185 81t102 232q27 151 -20 232t-156 81t-184.5 -80.5t-102.5 -232.5zM770 1188l45 266h328l-45 -266h-328z" />
<glyph unicode="&#xf7;" horiz-adv-x="1226" d="M82 489l41 232h981l-41 -232h-981zM385 223q9 58 59 101t109 43q58 0 93 -42.5t26 -101.5q-10 -58 -60.5 -100.5t-109.5 -42.5q-58 0 -93 42t-24 101zM518 987q10 58 60.5 100.5t109.5 42.5q58 0 93 -42t24 -101q-9 -58 -59 -100.5t-109 -42.5q-58 0 -93 42t-26 101z" />
<glyph unicode="&#xf8;" horiz-adv-x="1253" d="M-172 -135l281 287q-91 146 -54 360q20 109 66.5 200t108.5 154t138.5 106.5t156.5 64t161 20.5q139 0 246 -58l155 160h265l-281 -289q89 -140 51 -358q-19 -110 -65 -201t-108 -154t-138 -106.5t-156 -63.5t-161 -20q-139 0 -246 58l-156 -160h-264zM350 401l391 402 q-42 22 -96 22q-109 0 -184.5 -80.5t-102.5 -232.5q-10 -71 -8 -111zM438 221q42 -22 97 -22q109 0 184.5 81t101.5 232q10 51 10 113z" />
<glyph unicode="&#xf9;" horiz-adv-x="1206" d="M57 350l119 674h303l-112 -641q-33 -184 114 -184q90 0 156.5 69t99.5 209l97 547h303l-181 -1024h-303l31 172q-126 -205 -369 -205q-146 0 -218 96t-40 287zM395 1475h303l86 -287h-204z" />
<glyph unicode="&#xfa;" horiz-adv-x="1206" d="M57 350l119 674h303l-112 -641q-33 -184 114 -184q90 0 156.5 69t99.5 209l97 547h303l-181 -1024h-303l31 172q-126 -205 -369 -205q-146 0 -218 96t-40 287zM590 1188l184 287h303l-282 -287h-205z" />
<glyph unicode="&#xfb;" horiz-adv-x="1206" d="M57 350l119 674h303l-112 -641q-33 -184 114 -184q90 0 156.5 69t99.5 209l97 547h303l-181 -1024h-303l31 172q-126 -205 -369 -205q-146 0 -218 96t-40 287zM307 1188l217 287h418l119 -287h-254l-88 205l-158 -205h-254z" />
<glyph unicode="&#xfc;" horiz-adv-x="1206" d="M57 350l119 674h303l-112 -641q-33 -184 114 -184q90 0 156.5 69t99.5 209l97 547h303l-181 -1024h-303l31 172q-126 -205 -369 -205q-146 0 -218 96t-40 287zM287 1188l45 266h327l-45 -266h-327zM758 1188l45 266h327l-45 -266h-327z" />
<glyph unicode="&#xfd;" horiz-adv-x="1222" d="M74 1024h305l176 -670l395 670h305l-847 -1434h-306l242 410zM598 1188l184 287h303l-282 -287h-205z" />
<glyph unicode="&#xfe;" horiz-adv-x="1308" d="M-55 -410l325 1844h293l-100 -564q63 91 150 139t188 48q96 0 171 -28t122 -78t75.5 -119.5t31 -153t-12.5 -178.5q-41 -242 -192 -387.5t-388 -145.5q-210 0 -274 172l-96 -549h-293zM391.5 344.5q8.5 -53.5 40 -86t70 -46t86.5 -13.5q49 0 92.5 14.5t85.5 47t73 93.5 t46 146q14 90 5.5 152t-39 100.5t-69 55.5t-84.5 17q-49 0 -94 -18t-87 -57t-74 -108t-48 -163q-12 -81 -3.5 -134.5z" />
<glyph unicode="&#xff;" horiz-adv-x="1222" d="M74 1024h305l176 -670l395 670h305l-847 -1434h-306l242 410zM295 1188l45 266h328l-45 -266h-328zM766 1188l45 266h328l-45 -266h-328z" />
<glyph unicode="&#x152;" horiz-adv-x="2258" d="M72.5 435q-20.5 123 9.5 282q27 154 90.5 281.5t147 212.5t186 144t208 85t212.5 26q234 0 385 -114l14 82h959l-41 -232h-656l-61 -342h553l-41 -231h-553l-70 -398h656l-41 -231h-959l14 82q-199 -115 -426 -115q-107 0 -202.5 27t-178 84t-134 145.5t-72 211.5z M395 717q-25 -143 2.5 -256t107 -177.5t200.5 -64.5q181 0 312.5 139t170.5 359q39 218 -45 357.5t-262 139.5q-179 0 -313 -139.5t-173 -357.5z" />
<glyph unicode="&#x153;" horiz-adv-x="1935" d="M45 512q20 109 66.5 200t108.5 154t138.5 106.5t156.5 64t161 20.5q107 0 199.5 -37t154.5 -109q86 73 189 109.5t204 36.5q95 0 174.5 -31.5t139.5 -98t80 -171t-2 -250.5l-11 -55h-702q-22 -124 20.5 -188t149.5 -64q94 0 146.5 40t70.5 85l289 -21 q-22 -99 -106.5 -177t-200.5 -118.5t-240 -40.5q-103 0 -194 35.5t-152 106.5q-85 -70 -190.5 -106t-211.5 -36q-103 0 -190.5 33t-152.5 97t-92 171.5t-3 243.5zM348 512q-26 -152 20.5 -232.5t155.5 -80.5q103 0 177 72t104 208l4 27q1 5 3 16.5t3 16.5q20 139 -28 212.5 t-152 73.5q-109 0 -184.5 -80.5t-102.5 -232.5zM1135 631h428q13 82 -33 138t-148 56t-168 -56.5t-79 -137.5z" />
<glyph unicode="&#x178;" horiz-adv-x="1277" d="M147 1434h306l211 -635l405 635h315l-913 -1434h-315l288 455zM385 1597l45 267h328l-45 -267h-328zM856 1597l45 267h328l-45 -267h-328z" />
<glyph unicode="&#x2c6;" horiz-adv-x="1327" d="M369 1188l217 287h418l118 -287h-254l-88 205l-157 -205h-254z" />
<glyph unicode="&#x2dc;" horiz-adv-x="1433" d="M373 1208q18 99 68 170.5t114.5 105.5t138.5 36q51 1 88 -11t57 -29.5t36.5 -35.5t37 -30.5t48.5 -12.5q33 0 60.5 30.5t37.5 88.5l225 -21q-25 -147 -115.5 -229t-203.5 -82q-62 0 -104.5 18.5t-60 40t-43.5 40t-59 18.5t-60.5 -29.5t-37.5 -87.5z" />
<glyph unicode="&#x2000;" horiz-adv-x="1007" />
<glyph unicode="&#x2001;" horiz-adv-x="2015" />
<glyph unicode="&#x2002;" horiz-adv-x="1007" />
<glyph unicode="&#x2003;" horiz-adv-x="2015" />
<glyph unicode="&#x2004;" horiz-adv-x="671" />
<glyph unicode="&#x2005;" horiz-adv-x="503" />
<glyph unicode="&#x2006;" horiz-adv-x="335" />
<glyph unicode="&#x2007;" horiz-adv-x="335" />
<glyph unicode="&#x2008;" horiz-adv-x="251" />
<glyph unicode="&#x2009;" horiz-adv-x="403" />
<glyph unicode="&#x200a;" horiz-adv-x="111" />
<glyph unicode="&#x2010;" horiz-adv-x="1034" d="M123 489l41 232h706l-41 -232h-706z" />
<glyph unicode="&#x2011;" horiz-adv-x="1034" d="M123 489l41 232h706l-41 -232h-706z" />
<glyph unicode="&#x2012;" horiz-adv-x="1034" d="M123 489l41 232h706l-41 -232h-706z" />
<glyph unicode="&#x2013;" horiz-adv-x="1402" d="M123 489l41 232h1075l-41 -232h-1075z" />
<glyph unicode="&#x2014;" horiz-adv-x="1812" d="M123 489l41 232h1485l-41 -232h-1485z" />
<glyph unicode="&#x2018;" horiz-adv-x="573" d="M133 842l57 327q31 177 141.5 249.5t301.5 72.5l-29 -170q-121 0 -178.5 -31.5t-71.5 -120.5h185l-58 -327h-348z" />
<glyph unicode="&#x2019;" horiz-adv-x="575" d="M147 926l29 170q121 0 178.5 31t71.5 120h-184l57 328h348l-57 -328q-31 -177 -141.5 -249t-301.5 -72z" />
<glyph unicode="&#x201a;" horiz-adv-x="632" d="M-80 -322l29 170q121 0 178.5 31.5t71.5 120.5h-185l58 328h348l-58 -328q-31 -177 -141 -249.5t-301 -72.5z" />
<glyph unicode="&#x201c;" horiz-adv-x="1105" d="M215 842l57 327q31 177 141.5 249.5t301.5 72.5l-29 -170q-121 0 -178.5 -31.5t-71.5 -120.5h185l-58 -327h-348zM727 842l57 327q31 177 141.5 249.5t301.5 72.5l-29 -170q-121 0 -178.5 -31.5t-71.5 -120.5h185l-58 -327h-348z" />
<glyph unicode="&#x201d;" horiz-adv-x="1105" d="M125 926l29 170q121 0 178 31t71 120h-184l57 328h349l-58 -328q-31 -177 -141 -249t-301 -72zM637 926l29 170q121 0 178 31t71 120h-184l57 328h349l-58 -328q-31 -177 -141 -249t-301 -72z" />
<glyph unicode="&#x201e;" horiz-adv-x="632" d="M-80 -322l29 170q121 0 178.5 31.5t71.5 120.5h-185l58 328h348l-58 -328q-31 -177 -141 -249.5t-301 -72.5z" />
<glyph unicode="&#x2022;" horiz-adv-x="757" d="M90 530q19 104 108 180t193 76t167 -76t44 -180t-108 -180t-193 -76t-167 76t-44 180z" />
<glyph unicode="&#x2026;" horiz-adv-x="1740" d="M16 0l58 328h348l-57 -328h-349zM569 0l58 328h348l-57 -328h-349zM1122 0l58 328h348l-58 -328h-348z" />
<glyph unicode="&#x202f;" horiz-adv-x="403" />
<glyph unicode="&#x2039;" horiz-adv-x="884" d="M63 375l48 274q50 0 98 7t109.5 31t109.5 63t88.5 109.5t56.5 164.5h283q-30 -173 -142 -313.5t-280 -198.5q99 -39 162 -118.5t80.5 -179t-0.5 -214.5h-283q11 55 8 99.5t-10.5 80t-26 63.5t-38.5 48.5t-48 35t-53.5 24t-55.5 15t-55 7.5t-51 2z" />
<glyph unicode="&#x203a;" horiz-adv-x="884" d="M-45 0q32 174 143 314t279 198q-99 39 -161 118.5t-81.5 180t0.5 213.5h283q-11 -55 -8 -99.5t10.5 -80t26.5 -63.5t39 -48.5t48 -35t54 -24t56 -15t55 -7.5t51 -2l-48 -274q-50 0 -98.5 -7t-110 -31t-109.5 -63t-89 -109.5t-57 -164.5h-283z" />
<glyph unicode="&#x205f;" horiz-adv-x="503" />
<glyph unicode="&#x20ac;" horiz-adv-x="1710" d="M61 489l27 150h148q2 23 10 74q6 40 14 69h-145l26 150h166q56 135 147 240.5t196 168t211.5 94t207.5 31.5q119 0 222.5 -34.5t185 -102.5t125 -182.5t34.5 -261.5l-307 -21q2 184 -68.5 267t-236.5 83q-125 0 -232 -74.5t-174 -207.5h443l-27 -150h-471q-8 -29 -14 -69 q-8 -51 -10 -74h469l-27 -150h-438q22 -129 102 -199.5t203 -70.5q168 0 265.5 78t160.5 260l301 -20q-35 -119 -97 -215.5t-138.5 -161.5t-167 -109.5t-182.5 -64t-187 -19.5q-80 0 -157 18t-149.5 59t-128.5 100.5t-93 148t-44 196.5h-170z" />
<glyph unicode="&#x2122;" horiz-adv-x="1642" d="M143 1294l25 140h633l-25 -140h-241l-107 -606h-149l106 606h-242zM793 688l131 746h166l106 -533l293 533h166l-131 -746h-150l70 399l-217 -399h-137l-78 393l-70 -393h-149z" />
<glyph unicode="&#x25fc;" horiz-adv-x="1024" d="M0 0v1024h1024v-1024h-1024z" />
</font>
</defs>
</svg>
