<?xml version="1.0" standalone="no"?>
<!DOCTYPE svg PUBLIC "-//W3C//DTD SVG 1.1//EN" "http://www.w3.org/Graphics/SVG/1.1/DTD/svg11.dtd" >
<svg xmlns="http://www.w3.org/2000/svg" xmlns:xlink="http://www.w3.org/1999/xlink" version="1.1">
<metadata></metadata>
<defs>
<font id="uncut_sansmedium_oblique" horiz-adv-x="1165" >
<font-face units-per-em="2048" ascent="1638" descent="-410" />
<missing-glyph horiz-adv-x="477" />
<glyph horiz-adv-x="0" />
<glyph horiz-adv-x="682" />
<glyph unicode=" "  horiz-adv-x="477" />
<glyph unicode="&#x09;" horiz-adv-x="477" />
<glyph unicode="&#xa0;" horiz-adv-x="477" />
<glyph unicode="!" horiz-adv-x="770" d="M78 0l41 231h239l-41 -231h-239zM184 391l299 1043h209l-342 -1043h-166z" />
<glyph unicode="&#x22;" horiz-adv-x="903" d="M252 987l51 479h219l-116 -479h-154zM594 987l51 479h219l-116 -479h-154z" />
<glyph unicode="#" horiz-adv-x="1552" d="M18 358l29 168h270l177 344h-263l29 168h318l219 428h198l-219 -428h365l219 428h199l-220 -428h189l-31 -168h-244l-176 -344h238l-31 -168h-293l-182 -358h-197l183 358h-367l-182 -358h-197l182 358h-213zM514 526h367l176 344h-367z" />
<glyph unicode="$" horiz-adv-x="1323" d="M100 555l211 20q-34 -181 13 -286t163 -135l99 548q-198 58 -275.5 153t-52.5 241q27 144 153.5 246.5t307.5 121.5l24 133h136l-25 -135q187 -17 273.5 -130t52.5 -302l-211 -20q20 113 -19.5 183t-126.5 89l-78 -432q111 -30 187.5 -66t131 -88t73.5 -124t2 -166 q-33 -188 -181 -308.5t-368 -130.5l-29 -164h-135l31 170q-208 29 -305 178t-52 404zM467 1096q-13 -77 22.5 -126t128.5 -83l70 399q-91 -14 -150 -62.5t-71 -127.5zM621 145q129 9 210 78.5t99 173.5q20 111 -32.5 172t-182.5 99z" />
<glyph unicode="%" horiz-adv-x="1617" d="M53 0l1325 1466h193l-1327 -1466h-191zM154 1118q25 141 146.5 244.5t262.5 103.5t226.5 -103.5t60.5 -244.5q-26 -141 -147.5 -244.5t-262.5 -103.5t-226.5 103.5t-59.5 244.5zM317 1118q-15 -75 30 -129.5t120 -54.5q76 0 140.5 54.5t78.5 129.5t-31 130t-120 55 q-76 0 -141 -55t-77 -130zM768 315q26 141 147.5 245t262.5 104t226.5 -104t59.5 -245q-25 -141 -146.5 -244.5t-262.5 -103.5t-226.5 103.5t-60.5 244.5zM932 315q-13 -75 31.5 -129.5t119.5 -54.5q76 0 140.5 54.5t76.5 129.5q15 75 -29.5 130t-119.5 55q-76 0 -140.5 -55 t-78.5 -130z" />
<glyph unicode="&#x26;" horiz-adv-x="1503" d="M74 399q13 71 44.5 130.5t80 105t99.5 79t118 66.5q-81 187 -54 344q28 166 155 254t302 88q169 0 261 -88t63 -254q-11 -63 -44 -117t-71 -91t-102.5 -75t-110.5 -59.5t-123 -54.5q98 -148 254 -311q100 166 141 397l193 -20q-22 -125 -74.5 -257.5t-132.5 -246.5 q67 -64 149.5 -137.5t121.5 -109t40 -42.5h-290q0 4 -16.5 19t-61.5 53.5t-76 66.5q-194 -172 -442 -172q-142 0 -245.5 50.5t-153 150t-25.5 231.5zM281 399q-20 -118 47 -187t200 -69q161 0 287 111q-200 191 -321 383q-92 -49 -146 -105t-67 -133zM569 1124 q-20 -115 45 -258q48 20 79 34.5t70 34.5t64 39t50 42.5t39 50.5t20 57q13 78 -32.5 122t-117.5 44q-73 0 -138.5 -44.5t-78.5 -121.5z" />
<glyph unicode="'" horiz-adv-x="561" d="M252 987l51 479h219l-116 -479h-154z" />
<glyph unicode="(" horiz-adv-x="720" d="M113 414q1 102 20 207q22 125 68.5 246.5t97.5 211t112 172t105.5 130.5t85.5 85h211q-46 -43 -92.5 -93.5t-108 -133t-111 -171t-94 -207t-65.5 -240.5q-18 -103 -20 -202t11.5 -181.5t33 -154t47.5 -131.5t51.5 -101t48.5 -76h-211q-22 30 -44.5 68.5t-50.5 98 t-48 131.5t-34 155.5t-13 185.5z" />
<glyph unicode=")" horiz-adv-x="720" d="M-125 -225q46 43 92 93.5t107 133.5t111 171t94.5 207t66.5 241q18 103 20 202t-12 181.5t-33 153.5t-47.5 131.5t-51.5 101t-48 75.5h211q22 -30 44.5 -68.5t50 -97.5t47.5 -131.5t34 -155.5t13 -185t-19 -207q-22 -125 -68.5 -246.5t-97.5 -211.5t-112 -172.5 t-105.5 -130.5t-85.5 -85h-211z" />
<glyph unicode="*" horiz-adv-x="1050" d="M160 1006l24 141l295 -31l-200 191l118 100l148 -233l22 299h144l-84 -297l229 231l82 -100l-266 -191l305 33l-25 -143l-293 30l201 -188l-121 -103l-147 232l-21 -295h-143l84 297l-229 -234l-86 101l268 190z" />
<glyph unicode="+" horiz-adv-x="1226" d="M115 516l30 178h377l66 377h176l-66 -377h375l-33 -178h-374l-66 -373h-176l65 373h-374z" />
<glyph unicode="," horiz-adv-x="593" d="M-49 -295l20 115q92 0 138 43t61 137h-127l43 246h254l-45 -246q-27 -156 -114.5 -225.5t-229.5 -69.5z" />
<glyph unicode="-" horiz-adv-x="1019" d="M129 516l31 178h692l-31 -178h-692z" />
<glyph unicode="." horiz-adv-x="593" d="M43 0l45 246h252l-43 -246h-254z" />
<glyph unicode="/" horiz-adv-x="1038" d="M-78 -225l952 1691h209l-952 -1691h-209z" />
<glyph unicode="0" horiz-adv-x="1382" d="M111 717q40 225 139.5 394t248.5 262t328 93q269 0 389 -204t60 -545t-253 -545.5t-462 -204.5t-389.5 204.5t-60.5 545.5zM302 539q-1 -84 15.5 -157t50.5 -125.5t91 -83t133 -30.5q95 0 176.5 46t140 126.5t98.5 182t60 219.5q16 94 17.5 177.5t-15 156.5t-49.5 125.5 t-90 83t-133 30.5q-95 0 -177 -46t-141 -126t-99.5 -181.5t-60.5 -219.5q-16 -94 -17 -178z" />
<glyph unicode="1" horiz-adv-x="1142" d="M25 0l32 176h369l147 838q-91 -166 -313 -166h-84l29 176h84q145 0 232.5 97t125.5 313h209l-223 -1258h368l-30 -176h-946z" />
<glyph unicode="2" horiz-adv-x="1249" d="M-16 0l30 166q30 19 112.5 69.5t154.5 96t168.5 110.5t174.5 130.5t150.5 138t118.5 149.5t59 150q24 129 -47 204.5t-194 75.5q-129 0 -230.5 -82t-130.5 -245l-192 20q37 216 197.5 349.5t385.5 133.5q222 0 338 -131t82 -325q-73 -414 -825 -834h711l-31 -176h-1032z " />
<glyph unicode="3" horiz-adv-x="1306" d="M57 408l217 26q-14 -80 4.5 -140t61.5 -93.5t96.5 -49.5t116.5 -16q61 0 122 16.5t114.5 47.5t92 82.5t48.5 115.5q12 64 -8.5 114.5t-64 80.5t-98 45.5t-114.5 15.5h-174l31 185h174q128 0 217 65t108 170q19 104 -47 167t-194 63q-127 0 -215.5 -65t-110.5 -171 l-207 12q15 75 59.5 145.5t113.5 128.5t171 93t220 35q117 0 205.5 -34t138.5 -91t69 -130t6 -153q-20 -110 -88 -194t-164 -129q106 -38 157.5 -129t27.5 -224q-34 -191 -209 -317.5t-414 -126.5q-120 0 -217 35t-158 95t-85 144.5t-3 180.5z" />
<glyph unicode="4" horiz-adv-x="1429" d="M12 389l29 168q112 60 209 159t166.5 217t116.5 245.5t69 255.5h219q-20 -106 -63.5 -226.5t-106 -240.5t-149 -228t-180.5 -174h581l154 869h207l-154 -869h184l-30 -176h-185l-69 -389h-207l69 389h-860z" />
<glyph unicode="5" horiz-adv-x="1265" d="M55 401l211 21q-19 -118 53 -199.5t211 -81.5q148 0 250.5 96.5t126.5 235.5q24 140 -44 235t-216 95q-56 0 -108.5 -16t-84 -33t-66.5 -48.5t-42.5 -40.5t-26.5 -32h-202l207 801h852l-31 -177h-660l-98 -395q111 111 291 111q232 0 353.5 -138t82.5 -362 q-38 -223 -210.5 -364.5t-403.5 -141.5q-233 0 -356.5 118t-88.5 316z" />
<glyph unicode="6" horiz-adv-x="1314" d="M91.5 425q-4.5 76 1 147t18.5 145q32 188 101 333t163 235t204 135.5t232 45.5q419 0 459 -393l-215 -20q-50 237 -275 237q-349 0 -477 -545q68 104 176 163t236 59q106 0 193.5 -34.5t147.5 -97t84.5 -158t4.5 -210.5q-26 -146 -117 -261.5t-220 -177t-269 -61.5 q-94 0 -168.5 24.5t-124 66.5t-83.5 101t-50.5 124.5t-21 141.5zM311 467q-26 -148 43.5 -236t214.5 -88q144 0 243.5 88t125.5 236q26 149 -42.5 235t-211.5 86t-244 -86.5t-129 -234.5z" />
<glyph unicode="7" horiz-adv-x="1146" d="M143 1257l31 177h1032l-30 -168q-85 -49 -166.5 -120t-168.5 -182t-159.5 -246t-134.5 -321t-98 -397h-220q144 831 668 1257h-754z" />
<glyph unicode="8" horiz-adv-x="1286" d="M35 403q22 115 115.5 212.5t218.5 134.5q-88 44 -133.5 135t-28.5 182q29 173 183.5 286t387.5 113q232 0 346 -113t84 -286q-18 -94 -95.5 -184.5t-180.5 -132.5q113 -37 173 -134t38 -213q-23 -131 -122 -232.5t-233 -152.5t-276 -51q-105 0 -198.5 30.5t-162 85 t-101 138t-15.5 182.5zM246 403q-14 -81 25.5 -141t111 -87.5t162.5 -27.5q143 0 254.5 67.5t132.5 188.5q11 62 -8 111.5t-62 80t-101 46.5t-126 16q-92 0 -173 -27t-141 -86t-75 -141zM414 1067q-18 -101 54.5 -166t197.5 -65q124 0 219.5 64.5t115.5 166.5 q17 100 -55.5 161.5t-197.5 61.5q-126 0 -221.5 -62t-112.5 -161z" />
<glyph unicode="9" horiz-adv-x="1314" d="M47 360l215 21q16 -70 45 -120t87.5 -84t142.5 -34q348 0 479 545q-70 -103 -178.5 -162t-235.5 -59q-105 0 -192.5 34.5t-147.5 97t-85 158t-5 210.5q26 145 117.5 260.5t220 177t268.5 61.5q94 0 168.5 -24.5t124 -66.5t83.5 -101t50.5 -124t21.5 -141t0 -147t-18 -145 q-33 -188 -102 -333.5t-162.5 -235.5t-204 -135.5t-233.5 -45.5q-419 0 -459 393zM379 967q-26 -149 42.5 -235.5t211.5 -86.5q145 0 246 86.5t127 235.5q26 148 -43 235.5t-215 87.5q-142 0 -241.5 -87.5t-127.5 -235.5z" />
<glyph unicode=":" horiz-adv-x="567" d="M16 0l45 246h252l-43 -246h-254zM125 737l45 246h252l-43 -246h-254z" />
<glyph unicode=";" horiz-adv-x="593" d="M-49 -295l20 115q92 0 138 43t61 137h-127l43 246h254l-45 -246q-27 -156 -114.5 -225.5t-229.5 -69.5zM166 737l45 246h252l-43 -246h-254z" />
<glyph unicode="&#x3c;" horiz-adv-x="1185" d="M72 502l32 186l1016 506l-35 -201l-798 -397l657 -399l-35 -201z" />
<glyph unicode="=" horiz-adv-x="1226" d="M74 279l30 178h926l-31 -178h-925zM158 756l30 178h926l-31 -178h-925z" />
<glyph unicode="&#x3e;" horiz-adv-x="1185" d="M23 -4l36 201l797 401l-657 395l34 201l838 -506l-33 -186z" />
<glyph unicode="?" horiz-adv-x="1150" d="M141 977q25 137 101 247t197.5 176t267.5 66q223 0 330 -122t71 -324q-14 -76 -49.5 -141.5t-85 -112t-111 -81.5t-125.5 -54.5t-131 -26.5l-43 -242h-196l65 375q211 0 328.5 76.5t140.5 206.5q23 126 -40.5 198t-184.5 72q-125 0 -218 -84t-122 -250zM285 0l37 211h231 l-37 -211h-231z" />
<glyph unicode="@" horiz-adv-x="1808" d="M131 571q38 213 176 394.5t338 287t412 105.5q161 0 296 -62.5t222 -168t123.5 -251t7.5 -305.5q-16 -98 -58 -176.5t-96.5 -125t-112.5 -71t-114 -24.5q-102 0 -175.5 52t-82.5 143q-36 -97 -116 -154t-175 -57q-106 0 -174 64.5t-49 174.5q12 65 44.5 112.5t85 77.5 t112.5 47.5t141 29.5q104 16 135 31q51 25 41 79q-5 39 -46 57.5t-91 18.5q-83 0 -128.5 -35.5t-53.5 -97.5l-168 18q16 107 119.5 183.5t254.5 76.5q144 0 220.5 -68.5t50.5 -217.5l-29 -170q-10 -71 -7.5 -115t23.5 -68t44 -32.5t55 -8.5q70 0 128 66t79 188 q23 132 -6.5 251.5t-100.5 205.5t-181 137t-241 51q-175 0 -339 -86t-277 -234.5t-144 -324.5q-23 -131 7 -250t101 -205t182 -137t243 -51q166 0 317 74l234 -20q-242 -197 -580 -197q-159 0 -293.5 62.5t-221.5 167.5t-124 251.5t-8 306.5zM725 401q-8 -42 20 -70t78 -28 q91 0 165 71.5t99 213.5l9 16q-52 -55 -199 -76q-156 -23 -172 -127z" />
<glyph unicode="A" horiz-adv-x="1394" d="M-59 0l768 1434h231l260 -1434h-211l-78 428h-530l-229 -428h-211zM475 606h406l-103 568z" />
<glyph unicode="B" horiz-adv-x="1251" d="M43 0l254 1434h393q63 0 117 -6t123 -30t113.5 -64t67.5 -116q13 -43 13 -95q0 -40 -8 -85q-14 -91 -74 -171t-157 -122q119 -35 172 -123q37 -61 37 -141q0 -35 -7 -73q-14 -77 -46 -140.5t-72.5 -104.5t-92.5 -72.5t-99 -48t-99.5 -27t-87 -13t-66.5 -2.5h-481z M272 176h271q136 0 226.5 56.5t111.5 175.5q5 30 5 55q0 31 -8 57q-14 46 -50 71.5t-85.5 36.5t-117.5 11h-271zM387 817h193q289 0 329 221q5 28 5 52q0 76 -50 115q-66 52 -205 52h-194z" />
<glyph unicode="C" horiz-adv-x="1548" d="M100 438q-7 48 -8 102q0 81 17 175q27 151 88.5 277.5t142 212.5t178 146t196.5 87.5t197 27.5q114 0 211 -34t173 -102q75 -68 117 -180q38 -102 38 -232v-25l-213 -23q-5 194 -91 303t-267 109q-144 0 -263.5 -75t-195 -202.5t-103.5 -289.5q-14 -78 -14 -148 q0 -75 16 -139q31 -126 123.5 -201t235.5 -75q358 0 502 399l206 -21q-47 -145 -128 -255.5t-181 -176.5t-209 -98.5t-223 -32.5q-98 0 -187 28t-165.5 86t-125.5 146.5t-67 210.5z" />
<glyph unicode="D" horiz-adv-x="1388" d="M43 0l254 1434h455q45 0 84.5 -3t90 -12.5t93 -25t87.5 -43t78.5 -64.5t61 -92t41.5 -122q13 -62 12 -146v-12q-1 -91 -20 -197q-128 -717 -782 -717h-455zM283 176h225q136 0 231 30.5t161 99t105.5 166.5t65.5 245q24 122 24 215q-1 55 -9 100q-22 120 -113 172.5 t-273 52.5h-225z" />
<glyph unicode="E" horiz-adv-x="1177" d="M43 0l254 1434h877l-31 -177h-668l-76 -423h566l-31 -179h-565l-86 -479h669l-32 -176h-877z" />
<glyph unicode="F" horiz-adv-x="1177" d="M43 0l254 1434h877l-31 -177h-668l-76 -423h566l-31 -179h-565l-117 -655h-209z" />
<glyph unicode="G" horiz-adv-x="1615" d="M100 438q-8 49 -8 102q0 82 17 175q27 151 88 277t141.5 212t177.5 145.5t196.5 87t198.5 27.5q116 0 217.5 -35.5t181 -104.5t122.5 -183q35 -96 35 -213q0 -22 -1 -45l-211 -21v15q0 79 -20 147q-22 75 -66.5 133.5t-118.5 91.5t-171 33q-144 0 -263.5 -75t-195 -202.5 t-103.5 -289.5q-14 -78 -14 -148q0 -74 16 -139q31 -127 123.5 -201.5t235.5 -74.5q187 0 324.5 106.5t193.5 265.5h-459l33 176h674l-123 -700h-186l106 352q-61 -124 -161.5 -212.5t-211.5 -130.5t-223 -42q-98 0 -187 28t-165.5 86t-125.5 147t-67 210z" />
<glyph unicode="H" horiz-adv-x="1398" d="M43 0l254 1434h209l-107 -600h641l107 600h207l-254 -1434h-207l117 655h-641l-117 -655h-209z" />
<glyph unicode="I" horiz-adv-x="548" d="M43 0l254 1434h209l-254 -1434h-209z" />
<glyph unicode="J" horiz-adv-x="1175" d="M61 559l209 6q-18 -98 -18 -171q0 -90 26 -144q48 -98 175 -98q123 0 197 74t102 227l172 981h209l-170 -961q-15 -85 -38 -153.5t-65 -136.5t-99 -113.5t-144.5 -74t-196.5 -28.5q-380 0 -380 389q0 91 21 203z" />
<glyph unicode="K" horiz-adv-x="1302" d="M43 0l254 1434h209l-117 -660l701 660h235l-606 -578l409 -856h-235l-334 707l-219 -209l-88 -498h-209z" />
<glyph unicode="L" horiz-adv-x="1118" d="M43 0l254 1434h209l-223 -1258h651l-31 -176h-860z" />
<glyph unicode="M" horiz-adv-x="1726" d="M43 0l254 1434h270l215 -1176l629 1176h270l-254 -1434h-206l188 1067l-573 -1067h-199l-197 1075l-188 -1075h-209z" />
<glyph unicode="N" horiz-adv-x="1509" d="M43 0l254 1434h262l488 -1203l213 1203h206l-254 -1434h-282l-473 1167l-205 -1167h-209z" />
<glyph unicode="O" horiz-adv-x="1568" d="M109 382q-15 71 -15 154.5t15 180.5q27 151 87.5 276.5t141 211.5t178.5 146t199.5 87.5t204.5 27.5q129 0 238 -44t191.5 -136t112.5 -234q14 -69 14 -150q0 -86 -16 -185q-27 -151 -87.5 -276.5t-140.5 -212t-177.5 -146.5t-198.5 -87.5t-203 -27.5q-130 0 -239.5 44.5 t-192 136.5t-112.5 234zM319 717q-13 -76 -13 -145q0 -74 16 -140q30 -126 124 -203t240 -77q109 0 205.5 44t168 121t120 179.5t69.5 220.5q13 79 13 151q0 14 -1 28q-3 84 -30.5 155t-72 122.5t-114.5 80t-157 28.5q-217 0 -371 -161t-197 -404z" />
<glyph unicode="P" horiz-adv-x="1210" d="M43 0l254 1434h475q48 0 99 -6.5t121.5 -31.5t119.5 -66.5t76 -119.5q16 -46 16 -102q0 -39 -8 -82q-14 -76 -46.5 -138.5t-73 -104t-93 -73t-100.5 -48.5t-100 -27.5t-87 -13.5t-67 -3h-269l-108 -618h-209zM393 797h225q166 0 257.5 52.5t113.5 176.5q5 28 5 53 q0 82 -56 124q-73 54 -238 54h-225z" />
<glyph unicode="Q" horiz-adv-x="1603" d="M109 382q-15 70 -15 154t15 181q27 151 87.5 276.5t141 211.5t178.5 146t199.5 87.5t204.5 27.5q129 0 238 -44t191.5 -136t112.5 -234q14 -68 14 -150q0 -86 -16 -185q-59 -327 -262 -524l207 -328h-217l-135 215q-189 -113 -400 -113q-130 0 -239.5 44.5t-192 136.5 t-112.5 234zM319 717q-13 -76 -13 -145q0 -75 16 -140q30 -127 124 -203.5t240 -76.5q149 0 270 79l-301 478h215l224 -353q116 145 155 361q13 79 13 151q0 14 -1 28q-3 84 -30.5 155t-72 122.5t-114.5 80t-157 28.5q-217 0 -371 -161t-197 -404z" />
<glyph unicode="R" horiz-adv-x="1312" d="M43 0l254 1434h475q48 0 99 -6.5t121.5 -31.5t119.5 -66.5t76 -119.5q16 -46 16 -102q0 -39 -8 -82q-26 -147 -115 -229t-223 -109q108 -12 157 -46q49 -36 63 -112q6 -33 6 -75q0 -56 -11 -129l-37 -326h-211l41 356q8 54 8 98v14q-2 49 -18.5 82t-61 50.5t-122.5 17.5 h-312l-108 -618h-209zM393 797h225q168 0 257.5 50t113.5 179q5 30 5 56q0 84 -55 124q-72 52 -239 51h-227z" />
<glyph unicode="S" horiz-adv-x="1323" d="M100 555l211 20q-14 -75 -14 -138q0 -115 48 -185q74 -108 239 -109q144 0 235 71t111 183q5 30 5 57q0 84 -52 130q-69 62 -246 104q-227 58 -316 156q-69 75 -69 185q0 32 6 67q30 158 176.5 264t349.5 106q221 0 327 -115q79 -85 78 -220q0 -47 -9 -101l-211 -20 q6 38 6 70q0 84 -42 137q-59 73 -179 73q-116 0 -194 -50.5t-93 -143.5q-4 -22 -4 -41q1 -67 45 -107q58 -52 207 -90q58 -15 106 -30.5t93 -35t79 -41t64 -48.5t47.5 -57.5t29.5 -67.5q12 -36 12 -76q0 -42 -7 -96q-34 -196 -193.5 -317.5t-392.5 -121.5q-255 0 -379 152 q-88 108 -88 284q0 70 14 152z" />
<glyph unicode="T" horiz-adv-x="1292" d="M143 1257l31 177h1198l-31 -177h-495l-223 -1257h-207l223 1257h-496z" />
<glyph unicode="U" horiz-adv-x="1402" d="M133 273q-12 52 -11.5 111.5t11.5 125.5l164 924h209l-164 -924q-10 -52 -9 -95q0 -23 2 -44q8 -60 29.5 -102t59 -68t81.5 -37.5t97 -11.5q142 0 247.5 86t137.5 272l164 924h209l-164 -924q-30 -175 -125 -300t-223.5 -184t-278.5 -59q-111 0 -200.5 34.5t-151 100.5 t-84.5 171z" />
<glyph unicode="V" horiz-adv-x="1329" d="M174 1434h209l209 -1184l608 1184h209l-739 -1434h-242z" />
<glyph unicode="W" horiz-adv-x="1820" d="M195 1434h200l82 -1151l463 1151h195l57 -1151l487 1151h201l-606 -1434h-248l-53 1069l-430 -1069h-250z" />
<glyph unicode="X" horiz-adv-x="1304" d="M-80 0l619 717l-365 717h227l281 -551l475 551h227l-618 -717l364 -717h-227l-280 551l-476 -551h-227z" />
<glyph unicode="Y" horiz-adv-x="1212" d="M174 1434h209l219 -760l471 760h219l-891 -1434h-219l269 428z" />
<glyph unicode="Z" horiz-adv-x="1243" d="M23 0l32 176l908 1081h-717l30 177h943l-31 -177l-907 -1081h716l-32 -176h-942z" />
<glyph unicode="[" horiz-adv-x="770" d="M25 -225l299 1691h491l-33 -176h-301l-237 -1337h303l-31 -178h-491z" />
<glyph unicode="\" horiz-adv-x="1038" d="M221 1466h209l354 -1691h-209z" />
<glyph unicode="]" horiz-adv-x="770" d="M-78 -225l33 178h301l238 1337h-304l31 176h492l-299 -1691h-492z" />
<glyph unicode="^" horiz-adv-x="1169" d="M369 1188l202 301h295l101 -301h-170l-92 219l-166 -219h-170z" />
<glyph unicode="_" horiz-adv-x="694" d="M-156 -182l29 176h694l-30 -176h-693z" />
<glyph unicode="`" horiz-adv-x="929" d="M422 1489h229l74 -301h-154z" />
<glyph unicode="a" horiz-adv-x="1103" d="M31 272q15 84 57 145.5t110.5 100.5t147 62t184.5 38q125 18 163 31q87 30 87 104q0 12 -2 25q-5 30 -25 51.5t-49.5 32t-58.5 15t-61 4.5q-110 0 -174 -48t-78 -128l-205 20q25 136 158.5 234t328.5 98q89 0 159.5 -21t121.5 -63.5t71 -114.5q11 -39 11 -86 q0 -39 -8 -84l-121 -688h-199l37 209q-54 -105 -151 -172.5t-216 -67.5q-65 0 -122 20t-99 56.5t-61 95.5q-11 35 -11 75q0 27 5 56zM240 279q-2 -11 -2 -22q0 -43 32 -74q40 -38 111 -38q58 0 114 21.5t104.5 63t85 110t52.5 156.5l11 59q-58 -66 -269 -98 q-213 -34 -239 -178z" />
<glyph unicode="b" horiz-adv-x="1267" d="M43 0l254 1434h199l-105 -590q55 100 148.5 156.5t214.5 56.5q145 0 239 -75t125 -196q17 -65 17 -137q0 -63 -13 -133q-19 -111 -67.5 -209.5t-119.5 -174.5t-168 -120.5t-206 -44.5q-120 0 -193 58.5t-94 162.5l-32 -188h-199zM330 340q13 -70 46 -112t79 -63.5 t102 -21.5q128 0 226 93.5t132 279.5q9 58 9 105q0 33 -4 62q-10 69 -45 113t-82 64.5t-105 20.5q-119 0 -217 -84.5t-133 -249.5l-8 -47q-6 -45 -6 -85t6 -75z" />
<glyph unicode="c" horiz-adv-x="1167" d="M72 267q-11 50 -11 110q0 61 11 131q24 134 85 241.5t143 173t176.5 100t191.5 34.5q196 0 300 -97q97 -91 97 -288v-27l-211 -20q-3 126 -52 191t-165 65q-142 0 -235 -106t-123 -267q-11 -51 -11 -98q0 -24 3 -46q8 -66 33.5 -115.5t78 -77.5t125.5 -28q114 0 187 60.5 t118 183.5l203 -20q-69 -214 -206 -307t-335 -93q-98 0 -179.5 32.5t-141.5 99t-82 168.5z" />
<glyph unicode="d" horiz-adv-x="1267" d="M74 516q26 149 100 270t194 196t265 75q121 0 194.5 -56.5t94.5 -156.5l104 590h199l-254 -1434h-199l33 186q-57 -103 -151 -161t-214 -58q-144 0 -238 77t-124 200q-16 66 -16 140q0 63 12 132zM281 516q-11 -61 -11 -112q0 -104 44 -167q65 -94 192 -94q124 0 225 96 t133 283q9 55 9 101q-1 33 -5 61q-10 68 -44.5 111.5t-81.5 64.5t-105 21q-125 0 -224 -91t-132 -274z" />
<glyph unicode="e" horiz-adv-x="1171" d="M72 264q-11 51 -11 111q0 61 11 133q24 135 85.5 243t144 173t175 99t187.5 34q94 0 169 -33t127 -101q54 -68 70 -171q7 -42 6 -90q0 -70 -14 -154l-6 -43h-744q-8 -41 -8 -78q0 -87 43 -152q61 -92 195 -92q204 0 278 174l201 -20q-49 -153 -187 -241.5t-323 -88.5 q-95 0 -175.5 31.5t-141 97.5t-82.5 168zM299 616h545q3 29 3 58v14q-1 36 -16.5 71t-39.5 62t-65.5 43.5t-94.5 16.5q-129 0 -223 -84t-109 -181z" />
<glyph unicode="f" horiz-adv-x="753" d="M92 848l29 176h174l18 100q33 179 120.5 254.5t236.5 75.5h166l-31 -176h-119q-47 0 -73 -5.5t-48.5 -25.5t-35 -56.5t-23.5 -100.5l-12 -66h266l-31 -176h-266l-150 -848h-198l149 848h-172z" />
<glyph unicode="g" horiz-adv-x="1267" d="M-6 -121l209 21q-2 -25 10 -52t36.5 -53.5t71.5 -43.5t107 -17q140 0 231 69t121 236l27 147q-55 -103 -150 -161t-217 -58q-145 0 -238.5 75t-124.5 196q-17 66 -17 140q0 62 12 130q27 149 101 272t195 200t265 77q120 0 194 -59.5t93 -163.5l32 190h199l-170 -965 q-46 -256 -188 -378.5t-396 -122.5q-96 0 -172.5 22.5t-121.5 57.5t-73 78.5t-36 85.5q-3 21 -3 41q0 19 3 36zM274 341q11 -69 45.5 -113t81.5 -64.5t105 -20.5q117 0 214.5 82t135.5 242l12 72q4 37 4 71q0 117 -52 184q-67 87 -183 87q-128 0 -226 -93.5t-132 -279.5 q-9 -58 -9 -105q0 -34 4 -62z" />
<glyph unicode="h" d="M23 0l256 1440h206l-108 -621q54 111 150.5 174.5t226.5 63.5q157 -1 222 -101q43 -67 43 -169q0 -52 -11 -113l-119 -674h-209l117 664q8 37 8 66q0 12 -1 24q-5 38 -16.5 62.5t-35 39t-49 20t-58.5 5.5q-47 0 -91.5 -17.5t-88.5 -55.5t-80.5 -108.5t-58.5 -167.5 l-95 -532h-208z" />
<glyph unicode="i" horiz-adv-x="540" d="M37 0l180 1024h209l-180 -1024h-209zM233 1188l37 217h238l-37 -217h-238z" />
<glyph unicode="j" horiz-adv-x="583" d="M-274 -410l32 177h119q89 0 123 27t51 120l193 1110h205l-201 -1145q-52 -289 -357 -289h-165zM258 1188l37 217h237l-36 -217h-238z" />
<glyph unicode="k" horiz-adv-x="1083" d="M23 0l253 1434h199l-149 -848l514 438h239l-446 -389l274 -635h-229l-209 492l-190 -164l-58 -328h-198z" />
<glyph unicode="l" horiz-adv-x="548" d="M43 0l256 1454h209l-256 -1454h-209z" />
<glyph unicode="m" horiz-adv-x="1822" d="M23 0l180 1024h209l-37 -205q56 111 152.5 174.5t226.5 63.5q118 0 184.5 -58t77.5 -165q60 101 164 162t231 61q157 -1 222 -101q43 -67 43 -169q0 -52 -11 -113l-119 -674h-209l117 664q8 37 8 66q0 12 -1 24q-5 38 -16.5 62.5t-35 39t-48.5 20t-58 5.5 q-46 0 -91.5 -17t-89.5 -52t-79.5 -97.5t-53.5 -145.5l-100 -569h-209l117 664q8 37 8 66q0 12 -1 24q-5 38 -16.5 62.5t-35 39t-49 20t-58.5 5.5q-47 0 -91.5 -17.5t-89 -56t-81.5 -110t-59 -169.5l-93 -528h-208z" />
<glyph unicode="n" d="M23 0l180 1024h209l-37 -205q56 111 152.5 174.5t226.5 63.5q157 -1 222 -101q43 -67 43 -169q0 -52 -11 -113l-119 -674h-209l117 664q8 37 8 66q0 12 -1 24q-5 38 -16.5 62.5t-35 39t-49 20t-58.5 5.5q-47 0 -91.5 -17.5t-89 -56t-81.5 -110t-59 -169.5l-93 -528h-208z " />
<glyph unicode="o" horiz-adv-x="1216" d="M72 268q-11 51 -11 111.5t11 130.5q25 134 86 241t143.5 172.5t177 99.5t191.5 34t178.5 -33.5t141.5 -101t82 -170.5q11 -51 10 -111q0 -61 -11 -131q-19 -109 -63 -199.5t-102 -153t-130 -106t-147 -64t-152 -20.5q-98 0 -180 32.5t-142.5 99.5t-82.5 169zM281 510 q-10 -59 -10 -110q0 -94 36 -158q56 -98 201 -98.5t236.5 98t121.5 268.5q10 57 10 107q0 97 -38 163q-57 100 -201 101q-143 0 -235 -101t-121 -270z" />
<glyph unicode="p" horiz-adv-x="1267" d="M-29 -410l252 1434h199l-33 -190q56 104 150 163.5t215 59.5q144 0 238 -77t124 -200q17 -65 17 -138q0 -64 -13 -134q-18 -110 -66 -208t-119 -172.5t-168 -117.5t-206 -43q-121 0 -194.5 56.5t-92.5 158.5l-104 -592h-199zM326 475q-6 -41 -6 -77q0 -107 52 -170 q68 -85 185 -85q125 0 224.5 91t131.5 274q11 61 11 112q0 104 -44 167q-65 94 -192 94q-119 0 -218.5 -90.5t-135.5 -266.5z" />
<glyph unicode="q" horiz-adv-x="1265" d="M60 339v17q0 72 12 152q20 112 66.5 210t114.5 174t163.5 120.5t204.5 44.5q122 0 199 -60.5t98 -165.5l34 193h199l-252 -1434h-199l105 594q-58 -101 -156 -159t-221 -58q-88 0 -157.5 28t-112.5 78t-69.5 118t-28.5 148zM274 341q11 -69 45.5 -113t81.5 -64.5 t105 -20.5q74 0 141.5 32.5t124 105.5t82.5 178l14 88q4 35 4 66q0 116 -54 183q-67 85 -181 85q-128 0 -226 -93.5t-132 -279.5q-9 -58 -9 -105q0 -34 4 -62z" />
<glyph unicode="r" horiz-adv-x="794" d="M23 0l180 1024h209l-37 -215q53 104 136 159.5t179 55.5h129l-28 -176h-152q-129 0 -210 -93t-116 -290l-82 -465h-208z" />
<glyph unicode="s" horiz-adv-x="1093" d="M28 226q-7 31 -7 67q0 38 8 80l200 20q-4 -23 -4 -45q0 -36 10 -66q16 -50 51 -79t80 -44.5t95 -15.5q102 0 172.5 38.5t83.5 111.5q2 14 2 27q-1 22 -7 40q-10 28 -37.5 44.5t-57 25t-72.5 14.5l-154 21q-123 18 -191 95q-51 58 -51 140q0 27 5 56q24 139 152 220 t302 81q172 0 270 -88q77 -69 78 -175q0 -28 -6 -59l-202 -20q4 20 4 37q0 53 -34 86q-46 43 -140 43q-87 0 -147.5 -33.5t-70.5 -95.5q-2 -12 -2 -23q0 -37 26 -59q34 -28 116 -39l135 -21q68 -9 123 -30.5t98.5 -58t61.5 -94.5q11 -34 11 -74q0 -28 -5 -58 q-26 -150 -165 -239t-329 -89q-75 0 -141 16t-120.5 48.5t-90.5 81t-50 113.5z" />
<glyph unicode="t" horiz-adv-x="800" d="M86 848l29 176h174l55 309l195 21l-58 -330h264l-28 -176h-268l-93 -524q-7 -35 -6 -61q0 -41 16 -59q27 -28 111 -28h119l-31 -176h-166q-145 0 -205 68q-42 47 -42 135q0 39 8 86l98 559h-172z" />
<glyph unicode="u" d="M84 350l119 674h209l-117 -664q-7 -40 -7 -73q0 -65 28 -97q42 -48 130 -47q47 0 92 17.5t89.5 56t81.5 110t59 169.5l92 528h209l-180 -1024h-209l35 201q-56 -109 -152.5 -171.5t-224.5 -62.5q-156 1 -220 101q-44 68 -44 172q0 51 10 110z" />
<glyph unicode="v" horiz-adv-x="1077" d="M100 1024h199l147 -780l439 780h198l-575 -1024h-213z" />
<glyph unicode="w" horiz-adv-x="1630" d="M141 1024h199l51 -778l387 778h180l115 -772l326 772h196l-430 -1024h-231l-111 762l-381 -762h-231z" />
<glyph unicode="x" horiz-adv-x="1071" d="M-80 0l465 518l-274 506h231l186 -344l308 344h231l-451 -506l281 -518h-231l-195 358l-319 -358h-232z" />
<glyph unicode="y" horiz-adv-x="1150" d="M100 1024h209l187 -776l452 776h207l-838 -1434h-208l239 410z" />
<glyph unicode="z" horiz-adv-x="1017" d="M-39 0l31 166l731 692h-610l28 166h842l-31 -166l-729 -692h608l-28 -166h-842z" />
<glyph unicode="{" horiz-adv-x="927" d="M119 539l14 82l14 81q94 0 177 68.5t102 181.5l45 246q24 135 117 201.5t239 66.5h144l-31 -176h-133q-78 0 -111 -26.5t-47 -114.5l-35 -197q-19 -103 -85 -190t-169 -144q84 -58 120.5 -142.5t17.5 -186.5l-35 -197q-15 -88 7.5 -114.5t100.5 -26.5h134l-31 -176h-146 q-146 0 -216 66.5t-46 201.5l43 246q21 113 -38.5 181.5t-151.5 68.5z" />
<glyph unicode="|" horiz-adv-x="559" d="M18 -203l318 1800h199l-320 -1800h-197z" />
<glyph unicode="}" horiz-adv-x="927" d="M-78 -225l33 176h133q78 0 110.5 27t45.5 114l35 197q19 102 85 187t171 142q-86 57 -121.5 144t-16.5 190l35 197q15 88 -7.5 114.5t-98.5 26.5h-136l33 176h144q146 0 216 -66.5t46 -201.5l-45 -246q-19 -113 40 -181.5t152 -68.5l-14 -81l-17 -82q-91 0 -175 -69 t-103 -181l-43 -246q-26 -136 -118 -202t-238 -66h-146z" />
<glyph unicode="~" horiz-adv-x="999" d="M66 469q22 122 96 194t176 72q53 1 97.5 -17t70 -39.5t57 -39.5t60.5 -18q77 0 96 129l174 -21q-23 -122 -97.5 -194t-172.5 -72q-53 0 -98.5 18t-71 39.5t-57 39.5t-60.5 18q-39 0 -64 -39.5t-34 -89.5z" />
<glyph unicode="&#xa1;" horiz-adv-x="768" d="M14 -356l340 1042h168l-301 -1042h-207zM348 846l41 231h240l-41 -231h-240z" />
<glyph unicode="&#xa2;" d="M100.5 469.5q-16.5 95.5 3.5 222.5q21 123 74.5 223t126.5 166t156.5 105.5t173.5 50.5l63 360h136l-64 -360q342 -30 328 -408l-211 -20q-3 106 -37.5 168.5t-112.5 81.5l-127 -725q85 17 142 75.5t94 161.5l203 -20q-117 -367 -471 -397l-62 -351h-135l61 353 q-86 10 -155 47.5t-119.5 104t-67 162zM311 692q-26 -141 14.5 -237.5t149.5 -120.5l127 725q-114 -25 -189.5 -126t-101.5 -241z" />
<glyph unicode="&#xa3;" horiz-adv-x="1396" d="M12 0l29 154q76 50 128 96.5t80.5 88t43.5 84.5t16.5 86.5t-0.5 92.5h-289l29 156h250q-8 157 16 293q33 188 186.5 301.5t389.5 113.5q104 0 191 -34.5t143.5 -95t79 -147t2.5 -185.5l-203 -27q30 136 -41.5 224.5t-202.5 88.5q-129 0 -223.5 -64.5t-112.5 -172.5 q-20 -116 -8 -295h432l-28 -156h-394q5 -131 -35.5 -231.5t-164.5 -194.5h794l-30 -176h-1078z" />
<glyph unicode="&#xa4;" horiz-adv-x="1370" d="M74 203l166 143q-57 116 -33 252q27 141 123 254l-117 143l147 125l117 -141q131 78 271 78q137 0 239 -76l166 139l102 -125l-165 -141q56 -109 32 -252t-123 -256l117 -141l-147 -125l-115 139q-131 -78 -268 -78q-139 0 -242 80l-168 -143zM377 598q-22 -120 48 -204 t191 -83q120 0 218 84t120 205q22 120 -47.5 204.5t-189.5 84.5t-219 -85t-121 -206z" />
<glyph unicode="&#xa5;" horiz-adv-x="1329" d="M119 274l26 136h363l35 198h-365l25 135h305l-334 691h229l285 -582l492 582h229l-575 -691h303l-23 -135h-364l-35 -198h364l-24 -136h-365l-49 -274h-207l49 274h-364z" />
<glyph unicode="&#xa6;" horiz-adv-x="559" d="M18 -197l142 795h198l-141 -795h-199zM195 803l141 794h199l-142 -794h-198z" />
<glyph unicode="&#xa7;" horiz-adv-x="983" d="M8 193l209 20q-15 -89 29.5 -149t126.5 -60q79 0 133.5 47t64.5 107q7 40 -12.5 73t-57 56t-86.5 46.5t-100.5 43.5t-99.5 49.5t-83.5 62.5t-52 83.5t-5.5 111.5q25 145 188 211q-108 88 -82 242q23 134 143 231.5t293 97.5q116 0 199.5 -52.5t118 -135t18.5 -176.5 l-211 -21q15 89 -29 149t-126 60q-79 0 -134 -46.5t-65 -106.5q-7 -40 12.5 -73t57.5 -56t86.5 -46.5t100.5 -44t100 -50t83.5 -62.5t52 -83.5t5.5 -111.5q-25 -145 -189 -211q108 -88 82 -241q-15 -87 -71.5 -161t-152.5 -121.5t-212 -47.5q-87 0 -157.5 31t-112.5 82 t-59 116.5t-5 135.5zM283 698q-6 -33 3.5 -60t25.5 -45t49.5 -36.5t59 -29t72.5 -28t72 -28.5q97 44 111 125q6 33 -3.5 60t-25.5 45t-50 36.5t-59.5 29t-72.5 28t-72 28.5q-96 -44 -110 -125z" />
<glyph unicode="&#xa8;" horiz-adv-x="1179" d="M371 1188l35 211h233l-37 -211h-231zM743 1188l35 211h234l-37 -211h-232z" />
<glyph unicode="&#xa9;" horiz-adv-x="1744" d="M158 717q27 154 112 294t204 241t270 161t305 60q153 0 282 -60t212 -161t118 -241t8 -294q-36 -205 -168.5 -379.5t-323.5 -275.5t-395 -101q-155 0 -284.5 60t-213 161t-118.5 241t-8 294zM301 717q-22 -125 7 -238t97 -195.5t173.5 -131t230.5 -48.5q164 0 319 82 t262 223.5t136 307.5t-28.5 307t-184 223t-291.5 82q-166 0 -322 -82t-263 -223t-136 -307zM553 717q18 99 64 178t107.5 126.5t129.5 72t135 24.5q87 0 155.5 -32.5t110 -102.5t35.5 -168l-168 -16q-7 174 -157 174q-96 0 -160.5 -69t-85.5 -187t19 -186t136 -68 q159 0 220 168l161 -17q-27 -97 -93.5 -166.5t-147 -101t-166.5 -31.5q-68 0 -127 24.5t-104 71.5t-63.5 126.5t-0.5 179.5z" />
<glyph unicode="&#xab;" horiz-adv-x="1478" d="M98 422l31 180q61 0 133.5 26.5t142.5 76t125 133.5t72 186h186q-29 -164 -154.5 -312.5t-279.5 -199.5q135 -50 209 -199t45 -313h-186q18 102 -7 186t-78 133.5t-115.5 76t-123.5 26.5zM733 422l31 180q48 0 103.5 16t115 50.5t110 82.5t89.5 119.5t53 153.5h188 q-28 -164 -154 -312t-280 -198q135 -51 209 -200.5t45 -313.5h-188q18 102 -7 186t-77.5 133.5t-114.5 76t-123 26.5z" />
<glyph unicode="&#xac;" horiz-adv-x="1353" d="M160 539l28 163h973l-24 -135l-76 -426h-162l70 398h-809z" />
<glyph unicode="&#xad;" horiz-adv-x="1019" d="M129 516l31 178h692l-31 -178h-692z" />
<glyph unicode="&#xae;" horiz-adv-x="962" d="M96 1026q32 184 183.5 312t334.5 128q184 0 289.5 -127.5t73.5 -312.5q-34 -185 -184 -312.5t-334 -127.5q-120 0 -211.5 58t-132.5 159.5t-19 222.5zM182 1026q-28 -149 56.5 -251.5t234.5 -102.5q152 0 272 102t146 252q26 151 -57.5 252.5t-235.5 101.5 q-150 0 -270.5 -102t-145.5 -252zM346 809l80 459h154q17 0 35 -2.5t41 -11.5t39.5 -23t25.5 -40.5t2 -60.5q-11 -72 -96 -94q44 -6 55.5 -29t5.5 -85l-14 -113h-92l14 121q5 39 -3 52t-44 13h-80l-31 -186h-92zM485 1077h58q42 0 63 11.5t25 41.5q6 30 -11.5 43t-58.5 13 h-57z" />
<glyph unicode="&#xaf;" horiz-adv-x="1200" d="M369 1182l26 155h625l-27 -155h-624z" />
<glyph unicode="&#xb0;" horiz-adv-x="860" d="M158 1151q26 141 147 244.5t262 103.5t227 -103.5t60 -244.5q-25 -141 -147 -244.5t-263 -103.5t-226 103.5t-60 244.5zM332 1151q-12 -72 29.5 -123t113.5 -51t132.5 51t72.5 123q13 72 -29 123t-114 51t-131.5 -51t-73.5 -123z" />
<glyph unicode="&#xb1;" horiz-adv-x="1226" d="M20 -16l33 178h926l-31 -178h-928zM141 666l31 178h377l65 377h177l-66 -377h375l-33 -178h-375l-65 -373h-176l65 373h-375z" />
<glyph unicode="&#xb4;" horiz-adv-x="925" d="M369 1188l178 301h229l-254 -301h-153z" />
<glyph unicode="&#xb5;" horiz-adv-x="1226" d="M-20 -410l129 740l4 20l118 674h207l-119 -676q-17 -115 26 -160t128 -45q50 0 97 19.5t93.5 62.5t83.5 124t56 192v-6l86 489h207l-181 -1024h-206l34 203q-56 -110 -152 -173t-224 -63q-58 0 -111 17l-70 -394h-206z" />
<glyph unicode="&#xb6;" horiz-adv-x="1431" d="M133 917q0 46 8 101q14 76 46 139.5t72 105.5t91.5 74.5t99 50t98.5 28.5t86.5 14.5t67.5 3.5h748l-33 -177h-135l-248 -1400h-186l248 1400h-152l-248 -1400h-186l133 749h-86q-21 0 -43.5 1.5t-54 6t-60 12t-62 19.5t-60.5 29t-54.5 40t-44.5 52.5t-31 67t-14 83.5z M330 1018q-24 -128 51 -182t248 -54h45l84 475h-45q-173 0 -266.5 -55.5t-116.5 -183.5z" />
<glyph unicode="&#xb7;" horiz-adv-x="552" d="M86 367l45 245h252l-43 -245h-254z" />
<glyph unicode="&#xb8;" horiz-adv-x="964" d="M109 -291l129 21q0 -60 59 -60q31 0 53.5 19t28.5 51q4 32 -11 49.5t-46 17.5q-48 0 -70 -36l-102 51l145 291h158l-113 -191h14q71 0 117.5 -52.5t34.5 -129.5q-15 -78 -82 -130t-148 -52q-78 0 -126 41.5t-41 109.5z" />
<glyph unicode="&#xbb;" horiz-adv-x="1478" d="M-18 0q29 164 155.5 313.5t278.5 198.5q-135 51 -209 199.5t-45 312.5h188q-14 -82 0 -153.5t48 -119.5t81 -82.5t97 -50.5t98 -16l-31 -180q-48 0 -103.5 -16t-115.5 -50.5t-111 -82.5t-90 -119.5t-53 -153.5h-188zM616 0q29 165 155.5 314t279.5 200 q-89 32 -153.5 111.5t-91.5 185t-9 213.5h186q-14 -82 0.5 -153.5t48.5 -119.5t81 -82.5t97.5 -50.5t98.5 -16l-31 -180q-48 0 -104 -16t-116 -50.5t-111 -82.5t-90 -119.5t-54 -153.5h-187z" />
<glyph unicode="&#xbc;" horiz-adv-x="1730" d="M152 717l22 131h184l56 315q-57 -63 -142 -63h-53l23 129h53q56 0 83 12.5t47 55.5t38 137h141l-104 -586h184l-22 -131h-510zM168 0l1311 1466h174l-1311 -1466h-174zM907 184l21 113q113 51 184 165t96 255h146q-17 -98 -71.5 -212t-133.5 -192h217l72 404h141 l-72 -404h92l-22 -129h-92l-33 -184h-141l32 184h-436z" />
<glyph unicode="&#xbd;" horiz-adv-x="1710" d="M152 717l22 131h184l56 315q-57 -63 -142 -63h-53l23 129h53q56 0 83 12.5t47 55.5t38 137h141l-104 -586h184l-22 -131h-510zM180 0l1311 1466h174l-1311 -1466h-174zM971 0l20 115q17 11 79 46t117 69t116 77.5t101 90t48 87.5q10 59 -21 89t-88 30q-60 0 -104 -40 t-51 -120l-137 17q19 124 104.5 198t210.5 74q120 0 182.5 -72t44.5 -176q-31 -174 -362 -354h315l-22 -131h-553z" />
<glyph unicode="&#xbe;" horiz-adv-x="1710" d="M125 954l147 17q-20 -71 17 -104t102 -33q63 0 109.5 22.5t54.5 73.5q10 51 -28.5 72.5t-102.5 21.5h-84l22 131h87q57 0 93.5 22t43.5 62t-22 61t-87 21q-120 0 -137 -92l-139 16q8 77 91 141t208 64q124 0 183.5 -59t43.5 -152q-17 -99 -106 -147q96 -46 77 -162 q-19 -104 -110 -167t-219 -63q-132 0 -203.5 73t-40.5 181zM141 0l1311 1466h174l-1311 -1466h-174zM866 184l21 113q113 51 184 165t96 255h146q-17 -98 -71.5 -212t-133.5 -192h217l72 404h141l-72 -404h93l-23 -129h-92l-33 -184h-141l33 184h-437z" />
<glyph unicode="&#xbf;" horiz-adv-x="1150" d="M-18 57q17 95 67 172t120.5 126.5t150 79t163.5 38.5l43 242h197l-66 -375q-211 0 -328.5 -76.5t-140.5 -206.5q-23 -126 40.5 -198t185.5 -72q125 0 218 84t122 250l194 -21q-38 -210 -192.5 -349.5t-372.5 -139.5q-223 0 -330 122t-71 324zM537 866l36 211h232 l-37 -211h-231z" />
<glyph unicode="&#xc0;" horiz-adv-x="1394" d="M-59 0l768 1434h231l260 -1434h-211l-78 428h-530l-229 -428h-211zM475 606h406l-103 568zM623 1898h229l74 -301h-154z" />
<glyph unicode="&#xc1;" horiz-adv-x="1394" d="M-59 0l768 1434h231l260 -1434h-211l-78 428h-530l-229 -428h-211zM475 606h406l-103 568zM801 1597l178 301h229l-254 -301h-153z" />
<glyph unicode="&#xc2;" horiz-adv-x="1394" d="M-59 0l768 1434h231l260 -1434h-211l-78 428h-530l-229 -428h-211zM475 606h406l-103 568zM555 1597l203 301h295l100 -301h-170l-92 220l-166 -220h-170z" />
<glyph unicode="&#xc3;" horiz-adv-x="1394" d="M-59 0l768 1434h231l260 -1434h-211l-78 428h-530l-229 -428h-211zM475 606h406l-103 568zM496 1618q20 113 94.5 182.5t175.5 69.5q40 1 71 -11t50.5 -29t35.5 -34t34 -29t38 -12q75 0 97 115l172 -21q-20 -112 -95 -182t-174 -70q-40 0 -71 12t-50.5 28.5t-36 33.5 t-34.5 29t-39 12q-39 0 -63.5 -37.5t-30.5 -77.5z" />
<glyph unicode="&#xc4;" horiz-adv-x="1394" d="M-59 0l768 1434h231l260 -1434h-211l-78 428h-530l-229 -428h-211zM475 606h406l-103 568zM555 1597l35 211h233l-37 -211h-231zM928 1597l35 211h233l-37 -211h-231z" />
<glyph unicode="&#xc5;" horiz-adv-x="1394" d="M-59 0l768 1434h231l260 -1434h-211l-78 428h-530l-229 -428h-211zM475 606h406l-103 568zM670 1757q15 92 94 158.5t170 66.5t145 -66.5t39 -158.5q-15 -91 -93.5 -157t-170.5 -66q-91 0 -146 66.5t-38 156.5zM809 1757q-6 -35 14.5 -59.5t55.5 -24.5q36 0 64 24t34 60 q7 36 -12.5 60t-55.5 24q-37 0 -64.5 -23.5t-35.5 -60.5z" />
<glyph unicode="&#xc6;" horiz-adv-x="1777" d="M-59 0l768 1434h1067l-31 -177h-772l76 -423h518l-31 -179h-455l86 -479h385l-30 -176h-533l-78 428h-530l-229 -428h-211zM475 606h406l-103 568z" />
<glyph unicode="&#xc7;" horiz-adv-x="1548" d="M96.5 461.5q-13.5 113.5 12.5 253.5q27 151 88.5 277.5t142 212.5t178 146t196.5 87.5t197 27.5q114 0 211 -34t173 -102t117.5 -180t37.5 -257l-213 -23q-5 194 -91 303t-267 109q-144 0 -263.5 -75t-195 -202.5t-103.5 -289.5q-29 -161 2 -287.5t123.5 -201 t235.5 -74.5q358 0 502 399l206 -21q-44 -136 -118.5 -242.5t-167 -172.5t-193.5 -102.5t-209 -43.5l-28 -47h14q71 0 117.5 -52.5t34.5 -129.5q-15 -78 -82 -130t-148 -52q-78 0 -126.5 41.5t-41.5 109.5l129 21q0 -29 16 -44.5t44 -15.5q31 0 53.5 19t28.5 51 q4 32 -11.5 49.5t-46.5 17.5q-47 0 -69 -36l-103 51l76 151q-88 12 -164 47t-140 96t-102.5 146.5t-52 199z" />
<glyph unicode="&#xc8;" horiz-adv-x="1177" d="M43 0l254 1434h877l-31 -177h-668l-76 -423h566l-31 -179h-565l-86 -479h669l-32 -176h-877zM532 1858h230l74 -302h-154z" />
<glyph unicode="&#xc9;" horiz-adv-x="1177" d="M43 0l254 1434h877l-31 -177h-668l-76 -423h566l-31 -179h-565l-86 -479h669l-32 -176h-877zM698 1556l179 302h229l-254 -302h-154z" />
<glyph unicode="&#xca;" horiz-adv-x="1177" d="M43 0l254 1434h877l-31 -177h-668l-76 -423h566l-31 -179h-565l-86 -479h669l-32 -176h-877zM467 1614l203 301h295l100 -301h-170l-92 219l-166 -219h-170z" />
<glyph unicode="&#xcb;" horiz-adv-x="1177" d="M43 0l254 1434h877l-31 -177h-668l-76 -423h566l-31 -179h-565l-86 -479h669l-32 -176h-877zM465 1597l35 211h233l-37 -211h-231zM838 1597l34 211h234l-37 -211h-231z" />
<glyph unicode="&#xcc;" horiz-adv-x="544" d="M39 0l254 1434h209l-254 -1434h-209zM193 1898h229l74 -301h-154z" />
<glyph unicode="&#xcd;" horiz-adv-x="546" d="M43 0l254 1434h209l-254 -1434h-209zM362 1597l179 301h229l-254 -301h-154z" />
<glyph unicode="&#xce;" horiz-adv-x="569" d="M51 0l254 1434h209l-254 -1434h-209zM139 1597l203 301h295l100 -301h-170l-92 220l-166 -220h-170z" />
<glyph unicode="&#xcf;" horiz-adv-x="598" d="M63 0l254 1434h209l-254 -1434h-209zM152 1597l34 211h234l-37 -211h-231zM524 1597l35 211h234l-37 -211h-232z" />
<glyph unicode="&#xd0;" horiz-adv-x="1374" d="M-51 629l33 178h190l111 627h454q45 0 84.5 -3t90 -12.5t93 -25t87.5 -43t78.5 -64.5t61.5 -92t41.5 -122t12.5 -158t-20 -197q-128 -717 -783 -717h-454l110 629h-190zM268 176h226q136 0 231 30.5t161 99t105.5 166.5t65.5 245q38 195 15.5 315t-113.5 172.5t-273 52.5 h-225l-80 -450h217l-31 -178h-219z" />
<glyph unicode="&#xd1;" horiz-adv-x="1509" d="M43 0l254 1434h262l488 -1203l213 1203h206l-254 -1434h-282l-473 1167l-205 -1167h-209zM553 1618q20 113 94.5 182.5t175.5 69.5q40 1 71.5 -11t50.5 -29t35.5 -34t34.5 -29t38 -12q74 0 96 115l172 -21q-20 -112 -94.5 -182t-173.5 -70q-48 0 -85.5 18t-56 39.5 t-42 39.5t-48.5 18q-39 0 -63.5 -37.5t-30.5 -77.5z" />
<glyph unicode="&#xd2;" horiz-adv-x="1568" d="M109 381.5q-30 141.5 0 335.5q27 151 87.5 276.5t141 211.5t178.5 146t199.5 87.5t204.5 27.5q129 0 238 -44t191.5 -136t112 -233.5t-1.5 -335.5q-27 -151 -87.5 -276.5t-140.5 -212t-177.5 -146.5t-198.5 -87.5t-203 -27.5q-130 0 -239.5 44.5t-192 136.5t-112.5 233.5 zM319 717q-28 -159 2.5 -285.5t124.5 -203t240 -76.5q109 0 205.5 44t168 121t120 179.5t69.5 220.5q15 95 12 179t-30.5 155t-72 122.5t-114.5 80t-157 28.5q-217 0 -371 -161t-197 -404zM709 1898h229l74 -301h-154z" />
<glyph unicode="&#xd3;" horiz-adv-x="1568" d="M109 381.5q-30 141.5 0 335.5q27 151 87.5 276.5t141 211.5t178.5 146t199.5 87.5t204.5 27.5q129 0 238 -44t191.5 -136t112 -233.5t-1.5 -335.5q-27 -151 -87.5 -276.5t-140.5 -212t-177.5 -146.5t-198.5 -87.5t-203 -27.5q-130 0 -239.5 44.5t-192 136.5t-112.5 233.5 zM319 717q-28 -159 2.5 -285.5t124.5 -203t240 -76.5q109 0 205.5 44t168 121t120 179.5t69.5 220.5q15 95 12 179t-30.5 155t-72 122.5t-114.5 80t-157 28.5q-217 0 -371 -161t-197 -404zM866 1597l178 301h230l-254 -301h-154z" />
<glyph unicode="&#xd4;" horiz-adv-x="1568" d="M109 381.5q-30 141.5 0 335.5q27 151 87.5 276.5t141 211.5t178.5 146t199.5 87.5t204.5 27.5q129 0 238 -44t191.5 -136t112 -233.5t-1.5 -335.5q-27 -151 -87.5 -276.5t-140.5 -212t-177.5 -146.5t-198.5 -87.5t-203 -27.5q-130 0 -239.5 44.5t-192 136.5t-112.5 233.5 zM319 717q-28 -159 2.5 -285.5t124.5 -203t240 -76.5q109 0 205.5 44t168 121t120 179.5t69.5 220.5q15 95 12 179t-30.5 155t-72 122.5t-114.5 80t-157 28.5q-217 0 -371 -161t-197 -404zM643 1597l203 301h295l100 -301h-170l-92 220l-166 -220h-170z" />
<glyph unicode="&#xd5;" horiz-adv-x="1568" d="M109 381.5q-30 141.5 0 335.5q27 151 87.5 276.5t141 211.5t178.5 146t199.5 87.5t204.5 27.5q129 0 238 -44t191.5 -136t112 -233.5t-1.5 -335.5q-27 -151 -87.5 -276.5t-140.5 -212t-177.5 -146.5t-198.5 -87.5t-203 -27.5q-130 0 -239.5 44.5t-192 136.5t-112.5 233.5 zM319 717q-28 -159 2.5 -285.5t124.5 -203t240 -76.5q109 0 205.5 44t168 121t120 179.5t69.5 220.5q15 95 12 179t-30.5 155t-72 122.5t-114.5 80t-157 28.5q-217 0 -371 -161t-197 -404zM582 1618q20 113 94.5 182.5t175.5 69.5q40 1 71 -11t50.5 -29t35.5 -34t34 -29 t38 -12q75 0 97 115l172 -21q-20 -112 -95 -182t-174 -70q-40 0 -71 12t-50.5 28.5t-36 33.5t-34.5 29t-39 12q-39 0 -63.5 -37.5t-30.5 -77.5z" />
<glyph unicode="&#xd6;" horiz-adv-x="1568" d="M109 381.5q-30 141.5 0 335.5q27 151 87.5 276.5t141 211.5t178.5 146t199.5 87.5t204.5 27.5q129 0 238 -44t191.5 -136t112 -233.5t-1.5 -335.5q-27 -151 -87.5 -276.5t-140.5 -212t-177.5 -146.5t-198.5 -87.5t-203 -27.5q-130 0 -239.5 44.5t-192 136.5t-112.5 233.5 zM319 717q-28 -159 2.5 -285.5t124.5 -203t240 -76.5q109 0 205.5 44t168 121t120 179.5t69.5 220.5q15 95 12 179t-30.5 155t-72 122.5t-114.5 80t-157 28.5q-217 0 -371 -161t-197 -404zM641 1597l35 211h233l-37 -211h-231zM1014 1597l35 211h233l-37 -211h-231z" />
<glyph unicode="&#xd7;" horiz-adv-x="1128" d="M76 313l344 293l-242 295l148 123l241 -295l348 297l101 -125l-348 -295l241 -295l-145 -123l-242 295l-346 -293z" />
<glyph unicode="&#xd8;" horiz-adv-x="1562" d="M-145 -135l323 336q-130 196 -74 516q27 151 87.5 276.5t141 211.5t178.5 146t199.5 87.5t204.5 27.5q220 0 365 -116l209 217h215l-320 -334q129 -201 72 -516q-27 -151 -87.5 -276.5t-140.5 -212t-177.5 -146.5t-198.5 -87.5t-203 -27.5q-217 0 -366 119l-213 -221 h-215zM315 717q-36 -205 25 -348l793 827q-95 86 -250 86q-217 0 -371 -161t-197 -404zM428 240q98 -88 254 -88q109 0 205.5 44t168 121t120 179.5t69.5 220.5q36 205 -22 348z" />
<glyph unicode="&#xd9;" horiz-adv-x="1402" d="M133 273q-23 105 0 237l164 924h209l-164 -924q-15 -79 -7 -139t29.5 -102t59 -68t81.5 -37.5t97 -11.5q142 0 247.5 86t137.5 272l164 924h209l-164 -924q-30 -175 -125 -300t-223.5 -184t-278.5 -59q-111 0 -200.5 34.5t-151 100.5t-84.5 171zM625 1898h229l74 -301 h-154z" />
<glyph unicode="&#xda;" horiz-adv-x="1402" d="M133 273q-23 105 0 237l164 924h209l-164 -924q-15 -79 -7 -139t29.5 -102t59 -68t81.5 -37.5t97 -11.5q142 0 247.5 86t137.5 272l164 924h209l-164 -924q-30 -175 -125 -300t-223.5 -184t-278.5 -59q-111 0 -200.5 34.5t-151 100.5t-84.5 171zM791 1597l178 301h229 l-254 -301h-153z" />
<glyph unicode="&#xdb;" horiz-adv-x="1402" d="M133 273q-23 105 0 237l164 924h209l-164 -924q-15 -79 -7 -139t29.5 -102t59 -68t81.5 -37.5t97 -11.5q142 0 247.5 86t137.5 272l164 924h209l-164 -924q-30 -175 -125 -300t-223.5 -184t-278.5 -59q-111 0 -200.5 34.5t-151 100.5t-84.5 171zM561 1597l203 301h295 l100 -301h-170l-92 220l-166 -220h-170z" />
<glyph unicode="&#xdc;" horiz-adv-x="1402" d="M133 273q-23 105 0 237l164 924h209l-164 -924q-15 -79 -7 -139t29.5 -102t59 -68t81.5 -37.5t97 -11.5q142 0 247.5 86t137.5 272l164 924h209l-164 -924q-30 -175 -125 -300t-223.5 -184t-278.5 -59q-111 0 -200.5 34.5t-151 100.5t-84.5 171zM559 1597l35 211h233 l-36 -211h-232zM932 1597l35 211h233l-37 -211h-231z" />
<glyph unicode="&#xdd;" horiz-adv-x="1212" d="M174 1434h209l219 -760l471 760h219l-891 -1434h-219l269 428zM696 1597l178 301h230l-254 -301h-154z" />
<glyph unicode="&#xde;" horiz-adv-x="1249" d="M43 0l254 1434h209l-51 -293h264q21 0 43.5 -1.5t54 -5.5t61 -11.5t63.5 -19.5t62 -28.5t56 -39.5t46 -52.5t32.5 -67t14.5 -83.5t-7 -101q-14 -76 -46.5 -138t-73 -103t-93 -72t-100.5 -48t-100 -27.5t-87 -13.5t-67 -3h-269l-57 -326h-209zM340 502h225q166 0 258.5 53 t114.5 176q21 125 -52 178.5t-239 53.5h-225z" />
<glyph unicode="&#xdf;" horiz-adv-x="1353" d="M43 0l172 969q21 124 81 221t144 156t182 89.5t203 30.5q210 0 334.5 -115.5t95.5 -285.5q-18 -98 -83.5 -181t-172.5 -128q242 -71 195 -338q-35 -200 -192.5 -309t-415.5 -109h-111l35 182h108q90 0 164 22.5t129.5 77.5t69.5 136q11 62 -6.5 109t-58.5 73.5t-95 39.5 t-121 13h-108l33 185h88q132 0 223.5 61t110.5 166q19 103 -51 164t-203 61q-137 0 -239.5 -80.5t-131.5 -240.5l-170 -969h-209z" />
<glyph unicode="&#xe0;" horiz-adv-x="1103" d="M31 272q15 84 57 145.5t110.5 100.5t147 62t184.5 38q125 18 163 31q101 35 85 129q-5 30 -25 51.5t-49.5 32t-58.5 15t-61 4.5q-110 0 -174 -48t-78 -128l-205 20q25 136 158.5 234t328.5 98q89 0 159.5 -21t121.5 -63.5t71 -115t3 -169.5l-121 -688h-199l37 209 q-54 -105 -151 -172.5t-216 -67.5q-65 0 -122 20t-99 56.5t-61 95.5t-6 131zM240 279q-10 -58 30.5 -96t110.5 -38q58 0 114 21.5t104.5 63t85 110t52.5 156.5l11 59q-58 -66 -269 -98q-213 -34 -239 -178zM403 1489h230l74 -301h-154z" />
<glyph unicode="&#xe1;" horiz-adv-x="1103" d="M31 272q15 84 57 145.5t110.5 100.5t147 62t184.5 38q125 18 163 31q101 35 85 129q-5 30 -25 51.5t-49.5 32t-58.5 15t-61 4.5q-110 0 -174 -48t-78 -128l-205 20q25 136 158.5 234t328.5 98q89 0 159.5 -21t121.5 -63.5t71 -115t3 -169.5l-121 -688h-199l37 209 q-54 -105 -151 -172.5t-216 -67.5q-65 0 -122 20t-99 56.5t-61 95.5t-6 131zM240 279q-10 -58 30.5 -96t110.5 -38q58 0 114 21.5t104.5 63t85 110t52.5 156.5l11 59q-58 -66 -269 -98q-213 -34 -239 -178zM575 1188l179 301h229l-254 -301h-154z" />
<glyph unicode="&#xe2;" horiz-adv-x="1103" d="M31 272q15 84 57 145.5t110.5 100.5t147 62t184.5 38q125 18 163 31q101 35 85 129q-5 30 -25 51.5t-49.5 32t-58.5 15t-61 4.5q-110 0 -174 -48t-78 -128l-205 20q25 136 158.5 234t328.5 98q89 0 159.5 -21t121.5 -63.5t71 -115t3 -169.5l-121 -688h-199l37 209 q-54 -105 -151 -172.5t-216 -67.5q-65 0 -122 20t-99 56.5t-61 95.5t-6 131zM240 279q-10 -58 30.5 -96t110.5 -38q58 0 114 21.5t104.5 63t85 110t52.5 156.5l11 59q-58 -66 -269 -98q-213 -34 -239 -178zM344 1188l203 301h295l100 -301h-170l-92 219l-166 -219h-170z" />
<glyph unicode="&#xe3;" horiz-adv-x="1103" d="M31 272q15 84 57 145.5t110.5 100.5t147 62t184.5 38q125 18 163 31q101 35 85 129q-5 30 -25 51.5t-49.5 32t-58.5 15t-61 4.5q-110 0 -174 -48t-78 -128l-205 20q25 136 158.5 234t328.5 98q89 0 159.5 -21t121.5 -63.5t71 -115t3 -169.5l-121 -688h-199l37 209 q-54 -105 -151 -172.5t-216 -67.5q-65 0 -122 20t-99 56.5t-61 95.5t-6 131zM240 279q-10 -58 30.5 -96t110.5 -38q58 0 114 21.5t104.5 63t85 110t52.5 156.5l11 59q-58 -66 -269 -98q-213 -34 -239 -178zM285 1208q20 113 94.5 182.5t175.5 69.5q48 1 85.5 -17t55.5 -39.5 t41 -39.5t47 -18q75 0 97 114l172 -20q-20 -112 -95 -182t-174 -70q-40 0 -71 12t-50.5 29t-36 33.5t-34.5 28.5t-39 12q-39 0 -63.5 -37.5t-30.5 -77.5z" />
<glyph unicode="&#xe4;" horiz-adv-x="1103" d="M31 272q15 84 57 145.5t110.5 100.5t147 62t184.5 38q125 18 163 31q101 35 85 129q-5 30 -25 51.5t-49.5 32t-58.5 15t-61 4.5q-110 0 -174 -48t-78 -128l-205 20q25 136 158.5 234t328.5 98q89 0 159.5 -21t121.5 -63.5t71 -115t3 -169.5l-121 -688h-199l37 209 q-54 -105 -151 -172.5t-216 -67.5q-65 0 -122 20t-99 56.5t-61 95.5t-6 131zM240 279q-10 -58 30.5 -96t110.5 -38q58 0 114 21.5t104.5 63t85 110t52.5 156.5l11 59q-58 -66 -269 -98q-213 -34 -239 -178zM344 1188l35 211h233l-37 -211h-231zM717 1188l35 211h233 l-37 -211h-231z" />
<glyph unicode="&#xe5;" horiz-adv-x="1103" d="M31 272q15 84 57 145.5t110.5 100.5t147 62t184.5 38q125 18 163 31q101 35 85 129q-5 30 -25 51.5t-49.5 32t-58.5 15t-61 4.5q-110 0 -174 -48t-78 -128l-205 20q25 136 158.5 234t328.5 98q89 0 159.5 -21t121.5 -63.5t71 -115t3 -169.5l-121 -688h-199l37 209 q-54 -105 -151 -172.5t-216 -67.5q-65 0 -122 20t-99 56.5t-61 95.5t-6 131zM240 279q-10 -58 30.5 -96t110.5 -38q58 0 114 21.5t104.5 63t85 110t52.5 156.5l11 59q-58 -66 -269 -98q-213 -34 -239 -178zM459 1389q15 92 94 158.5t170 66.5t145 -66.5t39 -158.5 q-15 -91 -93.5 -157.5t-170.5 -66.5q-91 0 -146 66.5t-38 157.5zM598 1389q-6 -35 14.5 -59.5t55.5 -24.5q36 0 64 24t34 60q7 36 -12.5 60t-55.5 24q-37 0 -64.5 -23.5t-35.5 -60.5z" />
<glyph unicode="&#xe6;" horiz-adv-x="1824" d="M31 272q15 84 57 145.5t110.5 100.5t147 62t184.5 38q125 18 163 31q101 35 85 129q-5 30 -25 51.5t-49.5 32t-58.5 15t-61 4.5q-110 0 -174 -48t-78 -128l-205 20q25 136 158.5 234t328.5 98q71 0 134 -17t114 -56.5t74 -96.5q72 83 174.5 126.5t206.5 43.5 q94 0 169 -33t128 -101t69.5 -171t-6.5 -244l-8 -43h-743q-24 -139 36.5 -230.5t194.5 -91.5q205 0 279 174l200 -20q-51 -153 -189 -241.5t-323 -88.5q-88 0 -163 23.5t-137 84t-83 152.5q-62 -128 -175.5 -193t-246.5 -65q-65 0 -122 20t-99 56.5t-61 95.5t-6 131z M240 279q-10 -58 30.5 -96t110.5 -38q58 0 112 19.5t104 60.5t88 114t56 171l9 45q-61 -66 -271 -98q-213 -34 -239 -178zM954 616h545q4 36 2.5 72.5t-17 71t-39 61.5t-65 43.5t-94.5 16.5q-129 0 -223 -84t-109 -181z" />
<glyph unicode="&#xe7;" horiz-adv-x="1167" d="M72 508q24 134 85 241.5t143 173t176.5 100t191.5 34.5q197 0 300.5 -97t96.5 -315l-211 -20q-3 126 -52 191t-165 65q-142 0 -235 -106t-123 -267q-16 -77 -8 -143.5t33.5 -116t78 -77.5t125.5 -28q114 0 187 60.5t118 183.5l203 -20q-125 -384 -502 -400l-29 -45h15 q71 0 117 -52.5t34 -129.5q-15 -78 -81.5 -130t-147.5 -52q-78 0 -126.5 41.5t-41.5 109.5l129 21q0 -60 59 -60q31 0 53.5 19t28.5 51q4 32 -11 49.5t-46 17.5q-48 0 -70 -36l-102 51l78 155q-166 33 -253.5 169t-47.5 362z" />
<glyph unicode="&#xe8;" horiz-adv-x="1171" d="M71.5 264.5q-21.5 102.5 0.5 243.5q24 135 85.5 243t144 173t175 99t187.5 34q94 0 169 -33t127.5 -101t69 -171t-7.5 -244l-6 -43h-744q-26 -138 35 -230t195 -92q204 0 278 174l201 -20q-49 -153 -187 -241.5t-323 -88.5q-95 0 -175.5 31.5t-141.5 97.5t-82.5 168.5z M299 616h545q4 36 3 72.5t-16.5 71t-39.5 61.5t-65.5 43.5t-94.5 16.5q-129 0 -223 -84t-109 -181zM434 1489h230l73 -301h-153z" />
<glyph unicode="&#xe9;" horiz-adv-x="1171" d="M71.5 264.5q-21.5 102.5 0.5 243.5q24 135 85.5 243t144 173t175 99t187.5 34q94 0 169 -33t127.5 -101t69 -171t-7.5 -244l-6 -43h-744q-26 -138 35 -230t195 -92q204 0 278 174l201 -20q-49 -153 -187 -241.5t-323 -88.5q-95 0 -175.5 31.5t-141.5 97.5t-82.5 168.5z M299 616h545q4 36 3 72.5t-16.5 71t-39.5 61.5t-65.5 43.5t-94.5 16.5q-129 0 -223 -84t-109 -181zM598 1188l178 301h230l-254 -301h-154z" />
<glyph unicode="&#xea;" horiz-adv-x="1171" d="M71.5 264.5q-21.5 102.5 0.5 243.5q24 135 85.5 243t144 173t175 99t187.5 34q94 0 169 -33t127.5 -101t69 -171t-7.5 -244l-6 -43h-744q-26 -138 35 -230t195 -92q204 0 278 174l201 -20q-49 -153 -187 -241.5t-323 -88.5q-95 0 -175.5 31.5t-141.5 97.5t-82.5 168.5z M299 616h545q4 36 3 72.5t-16.5 71t-39.5 61.5t-65.5 43.5t-94.5 16.5q-129 0 -223 -84t-109 -181zM369 1188l202 301h295l101 -301h-170l-92 219l-166 -219h-170z" />
<glyph unicode="&#xeb;" horiz-adv-x="1171" d="M71.5 264.5q-21.5 102.5 0.5 243.5q24 135 85.5 243t144 173t175 99t187.5 34q94 0 169 -33t127.5 -101t69 -171t-7.5 -244l-6 -43h-744q-26 -138 35 -230t195 -92q204 0 278 174l201 -20q-49 -153 -187 -241.5t-323 -88.5q-95 0 -175.5 31.5t-141.5 97.5t-82.5 168.5z M299 616h545q4 36 3 72.5t-16.5 71t-39.5 61.5t-65.5 43.5t-94.5 16.5q-129 0 -223 -84t-109 -181zM367 1188l34 211h234l-37 -211h-231zM739 1188l35 211h234l-37 -211h-232z" />
<glyph unicode="&#xec;" horiz-adv-x="528" d="M43 0l180 1024h209l-180 -1024h-209zM121 1489h229l74 -301h-154z" />
<glyph unicode="&#xed;" horiz-adv-x="524" d="M23 0l180 1024h209l-181 -1024h-208zM266 1188l178 301h230l-254 -301h-154z" />
<glyph unicode="&#xee;" horiz-adv-x="538" d="M37 0l180 1024h209l-180 -1024h-209zM51 1188l203 301h295l100 -301h-170l-92 219l-166 -219h-170z" />
<glyph unicode="&#xef;" horiz-adv-x="559" d="M47 0l180 1024h209l-180 -1024h-209zM59 1188l35 211h234l-37 -211h-232zM432 1188l35 211h233l-36 -211h-232z" />
<glyph unicode="&#xf0;" horiz-adv-x="1230" d="M61 459q37 209 209 351t389 142q111 0 185 -50.5t104 -137.5q0 278 -164 422l-417 -207l22 127l295 145q-97 47 -217 47l29 168q219 0 372 -120l254 124l-22 -127l-150 -73q107 -123 147 -308t-1 -421q-21 -120 -70.5 -222.5t-124.5 -181.5t-182 -124.5t-234 -45.5 q-141 0 -246.5 64t-153.5 177t-24 251zM270 463q-25 -134 45.5 -227t200.5 -93q131 0 236.5 93t130.5 227q23 133 -50.5 223t-205.5 90q-130 0 -232 -89.5t-125 -223.5z" />
<glyph unicode="&#xf1;" d="M23 0l180 1024h209l-37 -205q56 111 152.5 174.5t226.5 63.5q157 0 222 -100.5t32 -282.5l-119 -674h-209l117 664q12 52 7 90t-16.5 62.5t-35 39t-49 20t-58.5 5.5q-47 0 -91.5 -17.5t-89 -56t-81.5 -110t-59 -169.5l-93 -528h-208zM305 1208q20 113 94.5 182.5 t175.5 69.5q40 1 71.5 -11t50.5 -28.5t35.5 -33.5t34.5 -29t38 -12q74 0 96 114l172 -20q-20 -112 -94.5 -182t-173.5 -70q-48 0 -85.5 18t-56 39.5t-42 39.5t-48.5 18q-39 0 -63.5 -37.5t-30.5 -77.5z" />
<glyph unicode="&#xf2;" horiz-adv-x="1216" d="M72 267.5q-22 102.5 0 242.5q25 134 86 241t143.5 172.5t177 99.5t191.5 34t178.5 -33.5t141.5 -101t81.5 -170.5t-0.5 -242q-19 -109 -63 -199.5t-102 -153t-130 -106t-147 -64t-152 -20.5q-98 0 -180 32.5t-142.5 99t-82.5 169zM281 510q-30 -170 26 -268.5t201 -98.5 t236.5 98.5t121.5 268.5q29 170 -28 270.5t-201 100.5q-143 0 -235 -101t-121 -270zM457 1489h229l74 -301h-154z" />
<glyph unicode="&#xf3;" horiz-adv-x="1216" d="M72 267.5q-22 102.5 0 242.5q25 134 86 241t143.5 172.5t177 99.5t191.5 34t178.5 -33.5t141.5 -101t81.5 -170.5t-0.5 -242q-19 -109 -63 -199.5t-102 -153t-130 -106t-147 -64t-152 -20.5q-98 0 -180 32.5t-142.5 99t-82.5 169zM281 510q-30 -170 26 -268.5t201 -98.5 t236.5 98.5t121.5 268.5q29 170 -28 270.5t-201 100.5q-143 0 -235 -101t-121 -270zM623 1188l178 301h229l-254 -301h-153z" />
<glyph unicode="&#xf4;" horiz-adv-x="1216" d="M72 267.5q-22 102.5 0 242.5q25 134 86 241t143.5 172.5t177 99.5t191.5 34t178.5 -33.5t141.5 -101t81.5 -170.5t-0.5 -242q-19 -109 -63 -199.5t-102 -153t-130 -106t-147 -64t-152 -20.5q-98 0 -180 32.5t-142.5 99t-82.5 169zM281 510q-30 -170 26 -268.5t201 -98.5 t236.5 98.5t121.5 268.5q29 170 -28 270.5t-201 100.5q-143 0 -235 -101t-121 -270zM428 1188l203 301h295l100 -301h-170l-92 219l-166 -219h-170z" />
<glyph unicode="&#xf5;" horiz-adv-x="1216" d="M72 267.5q-22 102.5 0 242.5q25 134 86 241t143.5 172.5t177 99.5t191.5 34t178.5 -33.5t141.5 -101t81.5 -170.5t-0.5 -242q-19 -109 -63 -199.5t-102 -153t-130 -106t-147 -64t-152 -20.5q-98 0 -180 32.5t-142.5 99t-82.5 169zM281 510q-30 -170 26 -268.5t201 -98.5 t236.5 98.5t121.5 268.5q29 170 -28 270.5t-201 100.5q-143 0 -235 -101t-121 -270zM330 1208q20 113 94.5 182.5t175.5 69.5q48 1 85.5 -17t55.5 -39.5t41 -39.5t47 -18q75 0 97 114l172 -20q-20 -112 -95 -182t-174 -70q-40 0 -71 12t-50.5 29t-36 33.5t-34.5 28.5t-39 12 q-39 0 -63.5 -37.5t-30.5 -77.5z" />
<glyph unicode="&#xf6;" horiz-adv-x="1216" d="M72 267.5q-22 102.5 0 242.5q25 134 86 241t143.5 172.5t177 99.5t191.5 34t178.5 -33.5t141.5 -101t81.5 -170.5t-0.5 -242q-19 -109 -63 -199.5t-102 -153t-130 -106t-147 -64t-152 -20.5q-98 0 -180 32.5t-142.5 99t-82.5 169zM281 510q-30 -170 26 -268.5t201 -98.5 t236.5 98.5t121.5 268.5q29 170 -28 270.5t-201 100.5q-143 0 -235 -101t-121 -270zM391 1188l35 211h233l-36 -211h-232zM764 1188l35 211h233l-37 -211h-231z" />
<glyph unicode="&#xf7;" horiz-adv-x="1226" d="M115 516l30 178h928l-33 -178h-925zM416 250q9 47 49.5 82t87.5 35t75.5 -35t20.5 -82q-9 -46 -50 -80.5t-87 -34.5q-47 0 -75.5 34.5t-20.5 80.5zM541 961q9 46 50 80t87 34q47 0 75.5 -34t20.5 -80q-9 -47 -49.5 -82t-87.5 -35t-75.5 35t-20.5 82z" />
<glyph unicode="&#xf8;" horiz-adv-x="1251" d="M-145 -135l280 285q-86 139 -47 360q25 134 86 241t143.5 172.5t177 99.5t191.5 34q150 0 262 -80l178 182h195l-281 -285q85 -142 47 -364q-24 -135 -84.5 -241.5t-143 -171t-175.5 -97.5t-190 -33q-155 0 -267 80l-178 -182h-194zM295 313l512 521q-56 47 -154 47 q-143 0 -235 -101t-121 -270q-19 -120 -2 -197zM369 190q56 -47 155 -47q145 0 237 98.5t122 268.5q19 119 -2 203z" />
<glyph unicode="&#xf9;" d="M84 350l119 674h209l-117 -664q-21 -122 21.5 -169.5t129.5 -47.5q47 0 92 17.5t89.5 56t81.5 110t59 169.5l92 528h209l-180 -1024h-209l35 201q-56 -109 -152.5 -171.5t-224.5 -62.5q-156 0 -220.5 100.5t-33.5 282.5zM432 1489h230l73 -301h-153z" />
<glyph unicode="&#xfa;" d="M84 350l119 674h209l-117 -664q-21 -122 21.5 -169.5t129.5 -47.5q47 0 92 17.5t89.5 56t81.5 110t59 169.5l92 528h209l-180 -1024h-209l35 201q-56 -109 -152.5 -171.5t-224.5 -62.5q-156 0 -220.5 100.5t-33.5 282.5zM596 1188l178 301h230l-254 -301h-154z" />
<glyph unicode="&#xfb;" d="M84 350l119 674h209l-117 -664q-21 -122 21.5 -169.5t129.5 -47.5q47 0 92 17.5t89.5 56t81.5 110t59 169.5l92 528h209l-180 -1024h-209l35 201q-56 -109 -152.5 -171.5t-224.5 -62.5q-156 0 -220.5 100.5t-33.5 282.5zM367 1188l202 301h295l101 -301h-170l-93 219 l-165 -219h-170z" />
<glyph unicode="&#xfc;" d="M84 350l119 674h209l-117 -664q-21 -122 21.5 -169.5t129.5 -47.5q47 0 92 17.5t89.5 56t81.5 110t59 169.5l92 528h209l-180 -1024h-209l35 201q-56 -109 -152.5 -171.5t-224.5 -62.5q-156 0 -220.5 100.5t-33.5 282.5zM365 1188l34 211h234l-37 -211h-231zM737 1188 l35 211h234l-37 -211h-232z" />
<glyph unicode="&#xfd;" horiz-adv-x="1150" d="M100 1024h209l187 -776l452 776h207l-838 -1434h-208l239 410zM575 1188l179 301h229l-254 -301h-154z" />
<glyph unicode="&#xfe;" horiz-adv-x="1267" d="M-29 -410l326 1844h199l-105 -596q56 101 146 160t202 59q97 0 172 -29t120.5 -80t72.5 -121t28.5 -152.5t-12.5 -174.5q-20 -114 -68 -210.5t-119 -168.5t-170.5 -113t-215.5 -41q-114 0 -184 52t-91 147l-102 -576h-199zM322 449q-14 -148 52.5 -227t182.5 -79 q132 0 227 84t127 273q16 102 7.5 174.5t-42 118t-81 67t-107.5 21.5q-117 0 -213.5 -89t-136.5 -249z" />
<glyph unicode="&#xff;" horiz-adv-x="1150" d="M100 1024h209l187 -776l452 776h207l-838 -1434h-208l239 410zM342 1188l35 211h233l-37 -211h-231zM715 1188l35 211h233l-37 -211h-231z" />
<glyph unicode="&#x152;" horiz-adv-x="2258" d="M109 381.5q-30 141.5 0 335.5q27 151 87.5 276.5t141 211.5t178.5 146t199.5 87.5t204.5 27.5q130 0 243 -46t189 -136l26 150h877l-31 -177h-668l-75 -423h565l-31 -179h-565l-86 -479h670l-33 -176h-877l27 152q-110 -92 -239.5 -138.5t-258.5 -46.5 q-130 0 -239.5 44.5t-192 136.5t-112.5 233.5zM319 717q-28 -159 2.5 -285.5t124.5 -203t240 -76.5q109 0 205.5 44t168 121t120 179.5t69.5 220.5q15 95 12 179t-30.5 155t-72 122.5t-114.5 80t-157 28.5q-217 0 -371 -161t-197 -404z" />
<glyph unicode="&#x153;" horiz-adv-x="1964" d="M72 267.5q-22 102.5 0 242.5q25 134 86 241t143.5 172.5t177 99.5t191.5 34q117 0 212 -49.5t148 -145.5q87 95 199.5 145t226.5 50q94 0 169.5 -33t128 -101t69 -171t-7.5 -244l-7 -43h-743q-26 -138 34.5 -230t194.5 -92q205 0 279 174l201 -20q-49 -153 -187 -241.5 t-323 -88.5q-115 0 -211 48t-148 141q-87 -93 -199.5 -141t-228.5 -48q-98 0 -180 32.5t-142.5 99t-82.5 169zM281 510q-30 -170 26 -268.5t201 -98.5q136 0 225.5 88t124.5 242l6 35q5 30 6 35q19 156 -38.5 247t-194.5 91q-143 0 -235 -101t-121 -270zM1092 616h544 q4 36 3 72.5t-16.5 71t-39.5 61.5t-65.5 43.5t-94.5 16.5q-129 0 -222.5 -84t-108.5 -181z" />
<glyph unicode="&#x178;" horiz-adv-x="1212" d="M174 1434h209l219 -760l471 760h219l-891 -1434h-219l269 428zM463 1597l35 211h233l-37 -211h-231zM836 1597l34 211h234l-37 -211h-231z" />
<glyph unicode="&#x2c6;" horiz-adv-x="1171" d="M369 1188l202 301h295l101 -301h-170l-92 219l-166 -219h-170z" />
<glyph unicode="&#x2dc;" horiz-adv-x="1300" d="M373 1208q20 113 94.5 182.5t175.5 69.5q48 1 85.5 -17t55.5 -39.5t41 -39.5t47 -18q75 0 97 114l172 -20q-20 -112 -95 -182t-174 -70q-40 0 -71 12t-50.5 29t-36 33.5t-34.5 28.5t-39 12q-39 0 -63.5 -37.5t-30.5 -77.5z" />
<glyph unicode="&#x2000;" horiz-adv-x="991" />
<glyph unicode="&#x2001;" horiz-adv-x="1982" />
<glyph unicode="&#x2002;" horiz-adv-x="991" />
<glyph unicode="&#x2003;" horiz-adv-x="1982" />
<glyph unicode="&#x2004;" horiz-adv-x="660" />
<glyph unicode="&#x2005;" horiz-adv-x="495" />
<glyph unicode="&#x2006;" horiz-adv-x="330" />
<glyph unicode="&#x2007;" horiz-adv-x="330" />
<glyph unicode="&#x2008;" horiz-adv-x="247" />
<glyph unicode="&#x2009;" horiz-adv-x="396" />
<glyph unicode="&#x200a;" horiz-adv-x="110" />
<glyph unicode="&#x2010;" horiz-adv-x="1019" d="M129 516l31 178h692l-31 -178h-692z" />
<glyph unicode="&#x2011;" horiz-adv-x="1019" d="M129 516l31 178h692l-31 -178h-692z" />
<glyph unicode="&#x2012;" horiz-adv-x="1019" d="M129 516l31 178h692l-31 -178h-692z" />
<glyph unicode="&#x2013;" horiz-adv-x="1388" d="M129 516l31 178h1061l-31 -178h-1061z" />
<glyph unicode="&#x2014;" horiz-adv-x="1798" d="M129 516l31 178h1470l-31 -178h-1470z" />
<glyph unicode="&#x2018;" horiz-adv-x="614" d="M227 924l45 245q27 156 114.5 225.5t229.5 69.5l-20 -114q-92 0 -138 -43.5t-61 -137.5h127l-43 -245h-254z" />
<glyph unicode="&#x2019;" horiz-adv-x="602" d="M164 952l20 115q92 0 138 43t61 137h-127l43 246h254l-45 -246q-27 -156 -114.5 -225.5t-229.5 -69.5z" />
<glyph unicode="&#x201a;" horiz-adv-x="593" d="M-49 -295l20 115q92 0 138 43t61 137h-127l43 246h254l-45 -246q-27 -156 -114.5 -225.5t-229.5 -69.5z" />
<glyph unicode="&#x201c;" horiz-adv-x="1038" d="M254 924l45 245q27 156 114.5 225.5t229.5 69.5l-20 -114q-92 0 -138 -43.5t-61 -137.5h127l-43 -245h-254zM670 924l45 245q27 156 114.5 225.5t229.5 69.5l-21 -114q-92 0 -137.5 -43.5t-60.5 -137.5h127l-43 -245h-254z" />
<glyph unicode="&#x201d;" horiz-adv-x="1024" d="M156 952l20 115q92 0 138 43t61 137h-127l43 246h254l-45 -246q-27 -156 -114.5 -225.5t-229.5 -69.5zM571 952l21 115q92 0 138 43t61 137h-127l43 246h254l-46 -246q-27 -156 -114.5 -225.5t-229.5 -69.5z" />
<glyph unicode="&#x201e;" horiz-adv-x="593" d="M-49 -295l20 115q92 0 138 43t61 137h-127l43 246h254l-45 -246q-27 -156 -114.5 -225.5t-229.5 -69.5z" />
<glyph unicode="&#x2022;" horiz-adv-x="757" d="M117 530q17 94 96.5 162t171.5 68q93 0 149 -68t41 -162q-17 -94 -96.5 -161.5t-173.5 -67.5q-93 0 -148 67.5t-40 161.5z" />
<glyph unicode="&#x2026;" horiz-adv-x="1562" d="M43 0l45 246h252l-43 -246h-254zM528 0l45 246h252l-43 -246h-254zM1012 0l45 246h252l-43 -246h-254z" />
<glyph unicode="&#x202f;" horiz-adv-x="396" />
<glyph unicode="&#x2039;" horiz-adv-x="845" d="M98 422l31 180q61 0 133.5 26.5t142.5 76t125 133.5t72 186h186q-29 -164 -154.5 -312.5t-279.5 -199.5q135 -50 209 -199t45 -313h-186q18 102 -7 186t-78 133.5t-115.5 76t-123.5 26.5z" />
<glyph unicode="&#x203a;" horiz-adv-x="845" d="M-18 0q29 164 155.5 313.5t278.5 198.5q-135 51 -209 199.5t-45 312.5h188q-14 -82 0 -153.5t48 -119.5t81 -82.5t97 -50.5t98 -16l-31 -180q-48 0 -103.5 -16t-115.5 -50.5t-111 -82.5t-90 -119.5t-53 -153.5h-188z" />
<glyph unicode="&#x205f;" horiz-adv-x="495" />
<glyph unicode="&#x20ac;" horiz-adv-x="1740" d="M117 496l24 137h150q2 21 10 82q3 19 16 73h-147l25 138h165q42 109 107 199t139.5 152.5t160 105.5t170 63t167.5 20q90 0 170.5 -21t150 -66t118.5 -111.5t76 -162t23 -212.5l-212 -23q-5 193 -91.5 302.5t-267.5 109.5q-165 0 -295.5 -96t-202.5 -260h541l-24 -138 h-564q-13 -54 -16 -73q-8 -61 -10 -82h561l-25 -137h-536q19 -159 114 -251.5t256 -92.5q358 0 502 399l207 -21q-47 -145 -128 -255.5t-181 -176.5t-209 -98.5t-223 -32.5q-83 0 -159.5 19.5t-146 62t-122 103.5t-85.5 149.5t-38 194.5h-170z" />
<glyph unicode="&#x2122;" horiz-adv-x="1650" d="M133 1313l21 121h641l-21 -121h-254l-110 -625h-131l110 625h-256zM786 688l132 746h149l107 -566l307 566h149l-131 -746h-131l80 457l-244 -457h-123l-86 455l-77 -455h-132z" />
<glyph unicode="&#x25fc;" horiz-adv-x="1024" d="M0 0v1024h1024v-1024h-1024z" />
</font>
</defs>
</svg>
